<mxfile host="app.diagrams.net" modified="2022-12-22T12:28:20.481Z" agent="5.0 (Windows NT 10.0; Win64; x64) AppleWebKit/537.36 (KHTML, like Gecko) Chrome/108.0.0.0 Safari/537.36" version="20.6.2" etag="ryfmlBezCV6Tccpy9BYG" type="github">
  <diagram id="rcufZHwSGZaTVUtuJEH-" name="Page-1">
    <mxGraphModel dx="2031" dy="1007" grid="1" gridSize="10" guides="1" tooltips="1" connect="1" arrows="1" fold="1" page="1" pageScale="1" pageWidth="1169" pageHeight="827" math="0" shadow="0">
      <root>
        <mxCell id="0" />
        <mxCell id="1" parent="0" />
        <mxCell id="YRlIsao8IeBGWh96QyeZ-10" value="" style="rounded=1;arcSize=5;dashed=1;dashPattern=1 1;strokeWidth=2;fillColor=default;strokeColor=#6B7AFF;" vertex="1" parent="1">
          <mxGeometry x="80" y="120" width="1000" height="570" as="geometry" />
        </mxCell>
        <mxCell id="YRlIsao8IeBGWh96QyeZ-12" value="" style="rounded=1;arcSize=5;dashed=1;fillColor=none;gradientColor=none;dashPattern=1 1;strokeWidth=2;strokeColor=#FFC061;" vertex="1" parent="1">
          <mxGeometry x="117.48" y="150" width="922.52" height="510" as="geometry" />
        </mxCell>
        <mxCell id="YRlIsao8IeBGWh96QyeZ-14" value="" style="rounded=1;arcSize=5;dashed=1;fillColor=none;gradientColor=none;dashPattern=1 1;strokeWidth=2;strokeColor=#00CC00;" vertex="1" parent="1">
          <mxGeometry x="178" y="188" width="400" height="430" as="geometry" />
        </mxCell>
        <mxCell id="YRlIsao8IeBGWh96QyeZ-9" value="&lt;b&gt;vpc-atto5gc&lt;br&gt;10.0.0.0/16&lt;br&gt;&lt;/b&gt;" style="outlineConnect=0;dashed=0;verticalLabelPosition=bottom;verticalAlign=top;align=center;html=1;shape=mxgraph.aws3.virtual_private_cloud;fillColor=#F58534;gradientColor=none;" vertex="1" parent="1">
          <mxGeometry x="101.11" y="140" width="58.89" height="40" as="geometry" />
        </mxCell>
        <mxCell id="YRlIsao8IeBGWh96QyeZ-65" style="edgeStyle=orthogonalEdgeStyle;rounded=0;orthogonalLoop=1;jettySize=auto;html=1;exitX=0.5;exitY=1;exitDx=0;exitDy=0;entryX=0.519;entryY=0.002;entryDx=0;entryDy=0;entryPerimeter=0;fontFamily=Verdana;fontSize=16;fontColor=#2E201B;" edge="1" parent="1" source="YRlIsao8IeBGWh96QyeZ-13" target="YRlIsao8IeBGWh96QyeZ-10">
          <mxGeometry relative="1" as="geometry" />
        </mxCell>
        <mxCell id="YRlIsao8IeBGWh96QyeZ-13" value="" style="shape=image;verticalLabelPosition=bottom;labelBackgroundColor=default;verticalAlign=top;aspect=fixed;imageAspect=0;image=data:image/png,iVBORw0KGgoAAAANSUhEUgAAAl0AAAGcCAYAAADj3hWnAACJx0lEQVR4Xu2dBWAc19W2d3bFLFm2zMzMnNiJnTh20GGHuYH2b5u2aZvS1wbapGkabDhxEgccTuw4JpkZZEm2ZRBazMyw858zuyOP1guzJC28k6qStXcuPPdq591zzj1Xo8EFAiAAAiAAAiAAAiAAAiAAAiAAAiAAAiAAAiAAAiAAAiAAAiAAAiAAAiAAAiAAAiAAAiAAAiAAAiAAAiAAAiAAAiAAAiAAAiAAAiAAAiAAAiAAAiAAAiAAAiAAAiAAAiAAAiAAAiAAAiAAAiAAAiAAAiAAAiAAAiAAAiAAAiAAAiAAAiAAAiAAAiAAAiAAAiAAAiAAAiAAAiAAAiAAAiAAAiAAAiAAAiAAAiAAAiAAAiAAAiAAAiAAAiAAAiAAAiAAAiAAAiAAAiAAAiAAAiAAAiAAAiAAAiAAAiAAAiAAAiAAAiAAAiAAAiAAAiAAAiAAAiAAAiAAAiAAAiAAAiAAAiAAAiAAAiAAAiAAAiAAAiAAAiAAAiAAAiAAAiAAAiAAAiAAAiAAAiAAAiAAAiAAAiAAAiAAAiAAAiAAAiAAAiAAAiAAAiAAAiAAAiAAAiAAAiAAAiAAAiAAAiAAAiAAAiAAAiAAAiAAAiAAAiAAAiAAAiAAAiAAAiAAAiAAAiAAAiAAAiAAAiAAAiAAAiAAAiAAAiAAAiAAAiAAAiAAAiAAAiDQ8wSEnu8CegACnkWgtqoj7Pjx4kUxsRFlQ4dGHQ2PFETP6iF6AwIgAAIg4I0EAryx0+gzCLiTQEeHNjDpYM3K48fT5166dOLa3Oy2TwcPC8x2Z5uoGwRAAARAwPcJaH1/iBghCNhHgMy/eo0+JLimImzo+m/zfvXO65nvbFpXeU9lqRhjX00oDQIgAAIgAALnCcDShdUAAqYERI0oCkK7IAYH6NviItPTmi7JO5c77tjRomVHDtS/M2pM+P7oWKEJ4EAABEAABEDAHgIQXfbQQll/IcAxXO301SFoBI1OG6ptadb2Tznaev3ZUxlz5y3s8/WZk80fDxwcfJzivfT+AgXjBAEQAAEQcI4ARJdz/HC3DxIQBQ2LLmPwvOGbVhNM/x8c1NzQNnRHYuk9Z05XLZwzr89XRbnip/0GC4U+iAFDAgEQAAEQcDEBiC4XA0V1PkXg/O5eowQTNIFkA4vrlZ/T2qu0sGT08eTiJds3Vn04ZXrMhrg+Qq1PjR6DAQEQAAEQcCkBiC6X4kRlPkJAThFBoovMXgI5GUWlF5FcjpogTUdbQGzG6ZZlFO81cXJS7WXHDtZ8NGps1L6IaKHNRzhgGCAAAiAAAi4kANHlQpioyhcJiCS4DOMSRfqZBJh0sRAT6M9HDBRam4IGHtpXc0tmetXM6bN6bchJb/9g6KiAs75IA2MCARAAARBwnABEl+PscKffEDCork7BZRw3izC2hGnI5ajVxIZXlLZP3rqxeviJlLLF364t/nTugt5f9huoK/YbTBgoCIAACICAVQIQXVggIHAhAVlN2XVig6ANIKtYVERxQevcrz8vn3A8pe6y7VvKPp4+M349UkxgmYEACIAACEB0YQ2AwIUEWGzJXzb4nI/1MrghtXRjqEZsD4pMS627Ijc7b/KJpIZlx5Na3x8+KvAgpZjoAHAQAAEQAAH/JADR5Z/zjlHbJqBSdJmriNSXqKVg++jAxtqOIfv3NN6TlpYy96JFA7/IyWj7bOjIwHTbzaMECIAACICArxHAMUC+NqMYj6sI2BBd/LL1Px9D4L2OLF9huprK2Ak/fl/+u7dezVr9w9dFj5QWi71c1VHUAwIgAAIg4B0EYOnyjnlCL7ufgMp4LhZeilyqZg1fLLx0dKJjUERORuP8wvzikclHa644sLvxzbETQrfHxAnN3T88tAgCIAACINDdBCC6ups42vMhAnI6L/NDMt3tSAm/NFohXNPWEtYnLbXhmrxzaeOnTI/blJbS8sHgoUHJlN8L8V4+tDowFBAAARAwJQDRhTUBAhYIKDKkymcCKUqaEVwcSU/CSrqUPxvvktyNZPASqIxODNc01gaN3LujaWjmmaxFs+dGrs3L6lgzaLguBxMCAiAAAiDgmwQgunxzXjEqFxCQ/YvW7VlKHabwSMriS/GyZPnq3OxIP4vBFBUWFFBc2Dhxww+Vg1KTa5dt/rHmnRmzIn7o1UdX7YIhoAoQAAEQAAEPIgDR5UGTga74GwH5MO0wOlIoLDons2nhJx9kjDx2OHLFwd11q8dNjNgWFSu0+hsVjBcEQAAEfJUARJevzizG5SwB1QYuZxvi+w2nC4Vo2luC+iYfabwhKyN79qy5kV/T2Y4fjBwbnOaKNlAHCIAACIBAzxJAyoie5Y/WPZuAyh2MrhkEneZILscACraPCKitDh22bXPdo6++mP7Zl59U/K4wr72fa1pBLSAAAiAAAj1FAKKrp8ijXRAgAobzG5WXIRhfS1YvQR8bVloYMvm7L3OeeOPls6u3/lh5R0WpGAVwIAACIAAC3kkA7kXvnDf02kcIdEkrYThH6PwOSPqRAu01mo74+IzTzZfnn8ufkppcuvT40aa3h40MOUQpJtp9BAOGAQIgAAJ+QQCiyy+mGYP0CgJmdjxKR0BKlq9wTUtTYMLh/Q2r0k+dnj9zbv91mWea3x0xJuSUV4wNnQQBEAABELBxjgkAgYB/E+jWmC7rqCnHlyaQ/mBjgmqqo0dt21z88P9eOfPht2vLfll4Tj/Av6cJowcBEAAB7yAAS5d3zBN62f0Eek5wmUmsKg2ffs82L40YSPm+YsIKctpmfVNUNOp4cvnle7ZXvzNhcvSW2F5CQ/ejQosgAAIgAAJqCEB0qaGEMiDQnQQkN6OZMx3p92JnbnytRieEaDpadTFpJ5pXnMvOnT5pcsym44cb3xk+OvRAOI4U6s4ZQ1sgAAIgoIoARJcqTCjkpwR6ztpl8RBtZZ58tnwF0JFCkZqmhva+h/dXr8pMr5w1a26f77LT21cPGxWQ7qfzhmGDAAiAgEcSgOjyyGlBpzyAQA8KLh69pdys3K0L00wIIh3qSPFe5aVt4zf9WDnqVFrF4vVfF38yf2HvT+MScKSQB6wndAEEQAAE6GMyLhAAAS8i0Hl4o5k+U8SXEEi5v3SB2RnN8/PzSsYnH2lYvndb9buTpkVvpCOFWrxooOgqCIAACPgcAYgun5tSDMivCVDcl6DRaQKECI2+NTQm7WTD8nO5meOmz+q15FRq6+pxk4OS/JoPBg8CIAACPUgAGel7ED6aBgFXEehMsmp0ihoC7nmnY4SuoabXiJ1bGx5989WT733yfu6f83LaB7mqXdQDAiAAAiCgngAsXepZoSQIeCyBC48TMhwxJJ3nSJYvnSZCV1bUMnXDdzWjk5Pqr9q0vuKNaTNj1/Xpq6302EGhYyAAAiDgYwQgunxsQjEcEJAJdDliiKxegiaMlFhYWH5Ow5zPP87pn3ykcsWRfS3vjBkftCsyRmgFORAAARAAAfcSgOhyL1/UDgIeREA+TJuOFKoPGXTscNOgrIy06VNnRv509mTre6MnBKV4UGfRFRAAARDwOQKI6fK5KcWAXEigh9NGuGIk/CcuD0P+cye3o6DVaLXhmtrqqJG7tzU/+NqLZ9d8tab0d3nZ7UNc0SrqAAEQAAEQuJAARBdWBQj4NAEOqJfzeil/lk4VIqdjsEbQR4eUlwRP/P6bgifeezPj3cSf6u6oKhfDfRoLBgcCIAACPUAA7sUegI4mQaD7CCgTqZpLuGr4naChI4VaguNPn2hZei4nY0JyUuDisyeaXho9MfRE9/UVLYEACICAbxOA6PLt+cXoQMAmAQ64N+x+5OO0QzQtDbp+Rw4UX9unT0U2/RKiyyZBFAABEAABdQTgXlTHCaVAwGcJyOkmSHsZr0DySIYEi3pdkM8OGgMDARAAgR4gAEtXD0BHkyDgCQSUub3k9BKy8KLkqpYOf/SErqMPIAACIOCVBCC6vHLa0OluIuADuxctk+qax8tsOZ8efzetITQDAiAAAp0E4F7EYgABELCLQENdu27rhqKbdmwpX1lZqo+y62YU9nkC9Q2ikJJSNfP11zY9WVraFunzA8YAQcAOArB02QELRUHAjwh0zS+hGLheo9Wdy+5YuHdP2tIJEwdem3yw8YMRY0L3I6u9H60OC0PNzmoe+sknx+9KTDx2a1NTuX7l9Ze8BSogAALnCUB0YTWAAAiYI2BRdHFee40QEtTcGDf46IG2ETkZ2XNmzYtcm3m2fe2I0QGngNP/CFRU6MN27zp784v/2XH78ZMV8/T6gPCY2IhTCAz0v7WAEVsnANGFFQICIGCJgN7cC1qKsqfkEq2CGCgKYmRweWnr2E0/1vw65VjdVeu+Kn9v9ryYbxIGBJQAq+8TqKnRB6Sl1cx77rltj6WmFl3UWK9LELThOkFopwQkjR2+TwAjBAH7CEB02ccLpUHAXwhYtHQRAH6tnb5JokwrhGjEjpCownMtM7789Nygo4dKrtyVWP3+5GnRG2PihEZ/AeZv4zx+vHbSm28euH/v3syrqqp0wwQhQivoDMdO8c5Yww5Y7MXwt3WB8cLShTUAAiDgegLkYjx/wJBAZwoJukBNR2tcnzNpbVfm5eVNnT6r/NvjyY0fT5oadsj1zaPGniKQn9/aN3Hb6VUvvLDt1uzM+imCLixYq9VJYku+eGcs/3d+hfRUb9EuCHgWAVi6PGs+0BsQ6HkCfCijIYmXtZAcfqKef8qSw9HwTx1ZvgI1TXW6AXu2N9x38nj6pZ+8V7Z24eLoNUNGBGX1/ODQA0cJlJW1Rx45Wnb53/++6RfZ2TUTW5p1cVptBE26RWsWzFyOwsZ9PksAostnpxYDAwG3EzDzUJXC7OkxzMnsg8OqylrHb/ih8NepyYVL1n9b/snsOb2+7tNfqHB7z9CAywjU1onakycqLnrp5R33Hz6Uu6SpKaK/IETSHlZuwqY1C7H0LpsJVOQLBCC6fGEWMQYQcCUBg9XKmpVCtoLZeKCKdJYjHSnUEROTm9188RefFE44nlyx9MCemg8mTIxKRIoJV06ae+pKz2gc8f77Bx7cuyd/ZXFRywitLlqn1SofG9BU7iGPWn2VAESXr84sxuUsAX9/mtgaf+frrNHYI2l6CSIHVfMLWnI5hmnam4N6pRxtWplxNnvO9JnxG9JSmt4dMiwkKTzK3N3OTh/ud4ZAfn5zws6dBTf9/f823ZeXVzda3xEcrtWFS3Op4XmVpszKEpGEu2TytLWOnOkm7gUBryMA0eV1U4YOg0C3EOgas3Vhkyoepooi0vM3gCK+ogKa6toH791RefepkyVzF10y6LPcLPGLwcOFnG4ZFRqxSqC8XAw/fKRwxQsvbL8rJbVkfnt7WJygidIIWqXhU8XUgzMIgIBZAhBdWBggYJkAP10QDGxjhVi2U134cBYpy4QgUDCQGBNaUdo29YdvykakJJUt37ah4r3JM2J/jE/QVmFB9gyBo0nls199fftDSUfKltdUa/sL2miyUJ4/KY73VkjndaoxTEplqLC0xxUXCICATACiC2sBBECg2wicP2Sb0qtqgjUdbbrIjLONiwvy88ePOVB3w9ED9a+NHhO+OzJWaO22Tvl5Q+ln60duTcy5/dlntt5OOxSHasSQQEFLsXgml4oD0s2RhOjy8/WF4XclANGFFQECIGCJgJsfmGwG0Wl0QpSmpamjT2pSwzXZ2WcmzJmX8N3p1LbPx04OTMLUuI9AUVFH3J69WSuff37rXWfTq6aLYmSEQIlulXsoOq1bjnXDzevHsU7hLhDoSQIQXT1JH22DAAgQARZf7MaK0NZVhY7aurHm18dTKi//8pP8Ty5e3P+jhAFaHCnkwnVSWy0GHkspWvL88xsePnmiZkFjU0C8ThdrcB26xrrlwt6iKhDwLQIQXb41nxgNCHgsAfmhbsi7au7iHOYBdLhQREBRfsuU77+qHJZ6rGn5to1Vb0+dGbM+Ll6o99jBeUnHjiVXznj9jYP37dqdvrKhTpug1YRodTp+DBgFl3HHqajh2DtF7ls5nstLxolugoCnEoDo8tSZQb9AwMcI6OlBzpfheBjLF1u9dJRiQmwLico807goNzdzZGpKr8uSDjZ8PGZc2C5KMWH2IG4fw+XS4WRltwzalnj2DnIlrsrPbxolaMJDzMVtyakgTOcI8VwunQ5U5scEILr8ePIxdBDodgI2E5jLPTJsHBXECG1bY+igA7sa7z2bdmberDmx353LaH93yMgAHCmkYvLKyzsidlPc1jNPr3swO6t5amtbSKQ2IJq4GoSvmf2lKmpFERAAAUcJQHQ5Sg73gQAI2EVAetCbPuWlcx4tWb4MyVUNlq9woao8cNzWn+qHnUg5u+KHryvenjk79rv+g7SFdnXCTwrX1IgBySnFS/7zwu57Dh/JXdrSEhgvCKEayZVoMgcyfjWZIPwEH4YJAm4jANHlNrSo2AcIIAukOyZRKbQsCi7ZDmOYAoHyRVH8EQmGoJCigqYpX3927q/JRyuv3J1Y+/7kqZEbo3sJDe7oqjfWmZbWOO6tNw88tP9A1tUVZR1DBG1EAOdGEzqzyLP4NQpd+p0stiydLOCNDNBnEPBUAhBdnjoz6BcI+D2B85qXg+/5P0NuzlBNW1NoQlpK44q8nKzJk6aH/3TccKTQ0agoocNfseXmtvbfuvXUnc88vX5VXl7rOFEICdLqDPm2zjsTZauiaj+vMziRMsIZerjXJwlAdPnktGJQIOBWAs49TK1at7r2W84TJQVyS0cJcZJzg/jSacI0DbWBAw/sarn39PGsJfMv7rUm80zbZyPGBJ526+g9rPKSko6Yw0fyVzz3r233nUwrm0PnJEZotOF84qVRbsni1ZBdnlny7sSuF5HVs6LFHgUPm150x8cIQHT52IRiOCDgSwRM00x0TTfBEiyYXY4B1RUtwzeuL/7V8dSqZRu+rXp/3sKYT2N7+36KiUOHqxe88sruR5NT8hfV1wgJGm1kgKCVDxrnlWDuKCZzXnNJ0eICARBwMwGILjcDRvVeTQAxXR4/fRyIz3ohWKNvC4o6l94654uCvOHJRwsvO7Cr5r3xE6O2R8UJLR4/DDs7eOp0w9jNm0/e/c9nf7y5okI7VBTDtFotnWkpXY4uW0fvs7PzKA4CfkwAosuPJx9DBwErBNTYPdSU6TbIbPfSaYM1bc263idSmlZmZeTMmTmn13cnjjV8MnFa+MFu64gbG8rNbe6/Z3f29c8+veX+3Nz6saIYQvm2OEj+/MHUbmweVYMACDhJAKLLSYC43WcJ8Md+fPS3PL0eJbi6djOAgu0jdY31bYN2bqt44NSpysWff1i6dtGl8e/3G6Qt8sYVW1sjBh4+XLrshRe2/iwtrWJeS2tIL60QYRRbWKbeOKfos38SgOjyz3nHqK0TkJ9ieJp52UpRHtAsaAJJfMWFlhS0TVr/bfHwlKSiZZvXV743dWbsuj59hUpvGFpdnSicOVsz+8X/bn/o4MGC5fX1Af002iiNttOyxZsKKDDe4tFK3jBK9BEE/IcARJf/zDVGah8BCC77eHlEaXPH1eiEQI3YHhV+LrP1ojX5+ROOJVVeuX931eqJk2O2REYLbR7RcTOdOHO2btSHHyXduWN71q0lJa3DBSFMZ4jb6mpklAWXUnCer07ejQj3o6fOM/rlXwQguvxrvjFaNQQ4CTouWwQ8jpEyuafykBvDdFLcE6WYaG8Jijt2qO76zLPZM2fNSfg+83T7WyPGBnhUioniko7Y3bvO3fT8c9vuycionCjqwyO12ghb83H+gGopJYec/gFiyyY4FACBbiQA0dWNsNGU1xAwPrUQ0+U1M6aqoyy/dPRfjK6uqn3Y9i3Vj6WmFF/y7Wdlq2fOjftm0DBdrqpq3FSoskIMS04tueRf/9z48PET5QtaW0JjBSFWI2gNx08rTa/n/204o9L8ZchqxhfMtm6aNFQLAnYSgOiyExiK+wEB6YkmBNCDSsuhMpyIE5dZAh5FRnl2oPHwoC6d7hrvRZYvfURgeUnIlG++KHnqWFLVVTs2V74zZXrsj7Hx3Z/fKympYtYbb+y5/8DB/Curq/UDtdpIEltaKRms9AnA5IhKaaz0f/zfBaJLPu5H5PsNksuOfLRY6iAAAm4kANHlRrio2msJ0NNKJK2l1Rm24iNLt9fOpIWOG4LP+SjtYE1HW0DE2bSGJQV5BeOTjtSuOHao+Z2Ro4MPRsa4P94rK6t18LbEjDuefz7xtoL8xpGCEB6s1fLRPSyYzlupTEUTJ483iC3O1K9wISozytPPWLm+tnIxHm8nANHl7TOI/ruFgF5sbxM17U1UebhbGvD+Sj3KyqUGp2mQvcGCyS5HrUYnRGqa6sR+R/Y33Hb21IkZs+YlrMs41frxyHFBaWrqtrdMUWF73IGDeVc/8+z6BzMz6yZ3tIdFanWximpMHYLWzkr0WOehx3bM3vlCeRBwFQGILleRRD0+QyAgUNM8aEjYsdTIygXNDfXDNJqgYEGDPxVvn2DT3X2mqRYM5zuGBdRWB09I3Fg34uyp+kXfry34dMGi/p/E9xWqXDX+3XsKl7zy2vb7ko6WLGlsDEzQcgoIituyfHG/ODDegoax9HtXdRj1gAAIuIwAniQuQ4mKfIUApRFor6roeH9Av+jMbZtz70s/3XBRU1NwX852bu2AOmvPRSUb2VWEZ2X3rhhTS5f53FbsWaa0DGJAyLmshnlFBeWjjh2rv2JXYt17k6aEb4mN19Y72usTxxsmbvjp1IP/fn7HtdXVHf01mtBArTZIsrZZvziw0FYZR3uF+0AABLqTAERXd9JGW15DILaXjl2LG8uLxEOH9tfcuHdX0arszJqJGjEmXkNxQF7nW/Ma8j3VUaX7zhCcrqOM7+0tYvyZE03Lc3NOj508NW5nyuGG1aPGhu0Ji1Svgs7ltPbbsT3j1qee+v6+ohL9aDonMUgQOIUFX/LBB1hRPTXzaBcEupMARFd30kZbXkcgvp+UufztrDMtO/fsLFu1f2/lLdUVzUPIShGqIZejlh6ebDGRrVxqsoOrf1x7NC45rYZHd1Jd56xkCKGXtJpQbXN90IhDexoHZqVnzJozP+arvJyO1YOGWk8xUVklhuzbm7nyhf9suePkiaqL2juCIjWUJZ+zyUvWTsl4BdGlbo5QCgR8gwBEl2/MI0bhZgLDxwSfqa8Vn5oxp8/6rRtzHko9VresoS5soCAE09YxdkkZOqAX9YYUE4rtZmrdjm4eAqq3SEAWPrwLsOuRm4aEDWz3ovMcNZHBZUXNk35aVzs0KSn1im1bSv596WUJ35qrNjOzdci/n9/0j6RjpcsbG3S9BSGU1kWAtCyM2R6Mt/mQdsUKAwEQsEkAossmIhQAAQOBiCihg74dqa4UTyUdrrtq3+6iW06fLF+gb4/oI4hk+OKcSgbFZYLs/O+s7UED554m0HXeLrRa0j5HbahG3x4SmZdVPi3p0Lkl1GOzouvs2aJpyccKlzY2RPTWSrGAhsuQrhTxWT0902gfBHqKAERXT5FHu15LICZOaKDOry3Ka9t1+EDVSrJ43Fda0jpKbA+N0mo4MFq2mBgftJ1WL5963PpgEFJXMWQaaC+9SiZNSuFG4ppyaYmdp05fsJZFTQCZP4OC2P3c5SJXtBKc+fMSvfZPAx0HARCwQQCiC0sEBBwk0G9QYBHd+r+c9I7N2xPP3XNob8ON1VVtwwRNaBDnfjq/0/F8ikrlg9zc4cwOdqWnbvMt4SX7iCWRfKGrUYIsn2tIkXxSii+LF+84tD0tPrAGbA8SJUAABDoJQHRhMYCAkwSGjtJlNNSJf5k4qWnHvl1FNyUnlV3a3Bw1nFyOlH3JcBSLIdaL3VMURN1pUIGbyUn0brzdZG6kWCyDlUtx2ZpAQ6i88RYf2UDhRuaoGgR8nwBEl+/PMUbYDQTCDSkEtlaU6A9PmR5/2dZNJT/PzamZ0tYaFKMTwown6NEDWFJcVnbLdUNf7WjCRsZOO2ryhqJdBJUZPWVXQJ6U0FSFrcsbwKCPIAACriIA0eUqkqgHBIhArwRtDX37qiRPv3fv7pJVe3eX31qY3z5JEMNCODeTQXB13SEHcJ5EQBbEJqcWSvlJ7dZQchiYNEAt/ctwZiIuEAABfyUA0eWvM49xu5VAwiBtUWOd+N9xE+O379lVfPuRg+VX1lYGj6ADjQMp7aZReLm1C6jcIQK2PIZcqWNWLPs1m0MDwE0gAAIeTACiy4MnB13zbgLGrOXHaqrEU1On9dq85afCn509UzW/uTGot1YI10mWr/MBXt49WJ/qvUrhZX3MF1SiplafwojBgAAIXEAAoguLAgTcTCA6VmimJjZXlYkHD+wru2HfrvLbMzNq54odYWECZSi3uc2ty646C53lMud31rl5RGr25bm7Cz1ZP/sa9ex/hI7qyWlA2yDghQQgurxw0tBl7yQQ21vgeK/3c7P02/fuLr6FkqveUF4SNE4Qo8OlrPbSsMw8x9X4pRS5wLqJDlKpdxNoNAMCIOA7BCC6fGcuMRIvITB4uDa7oV58bur0Xps2byx6JPVo1bKG+oC+Wk045ffiP0lKTsBJNLH5zUtmFN0EARAAAXUEILrUcUIpEHApgfAIyWd4rK5G/HnqsZordm8vve3UydpLWptD+whaOudPr8xkbkjUyRrMNEu6pU4hN5RLpwuVgQAIgIBLCEB0uQQjKgEBxwhERgutdOcPJQXi/mNHq67cuinn/qJ83RS9JiJSK9CRQhyqZTxE256Y+/PpDdwWdoTkB45NOe4CARDwYwIQXX48+Ri65xBIGCCUUW9W56S37du9veKOg/tLVpaXCcO0mshw6Zw/h2K27crm6TkwvKcnEJ7eM1foKQh4BAGILo+YBnQCBAwEho4KPNtUL/5t8vTwTbt3lN127HDjysYGjvcKJuMVBdurCaqXakIC1h5eUxBkjn1S6OFpQ/Mg4F4CEF3u5YvaQcBuAqGGeK+9lGIideLkhp07EnPvzkyvmtXWEkX5vQI7jxSyu2L7b7Dmm/R3UeE2v63904Q7QAAEvIUARJe3zBT66XcEKMVEHQ36i+IC/a59u2tWHdhbdGtBbt0YsSM8WtCE+B0PDBgEQAAEvJ0ARJe3zyD67/ME+g7QFtMg/5txumXznp2ltx7cW31zdWXbYEEICRFEHe1q1Kne1ehCWMjT5UKYqAoEQMA/CEB0+cc8Y5Q+QGDk2OCTddXiPyZP6bVte2L+XSeSa5c0N4QNJPFFKb383dvXIxMM6D2CHY2CgPcSgOjy3rlDz/2QQGSM0EbD3l5dKR5KOtR89c7Ec3dmZZZNa2+NoGB7OlVIymvvknAjrsSaqIDg8MP1hyGDAAg4RwCiyzl+uBsEeoRATJzQQA1/XniuY/eBfSU37kisvL+8tGaERh8aptEY8nvZY/wyk0zVlqiy9XqPcEGjIAACIODJBCC6PHl20DcQsEGg/xBdARV5+czJ5h07thXfceRgxYq6qoiRWk0oKS/zusjcEUOGM7XlMC0+y9nm5e+iy9/Hb3OBoAAIgMCFBCC6sCpAwAcIjJkQklJfK56cMbPfhsTN5+47dbJiUUtDWD9BGxogiIZjhOTLevyXS1yTPkBU1RAgvFRhQiEQAAGZAEQX1gII+AiBiCihnYayvbRYn3L0UMU1uxIr7srNqZ4idoTGkMtRK1ByVUvhXgb3Ip3vCM3lI6sBwwABEPBEAhBdnjgr6BMIOEGgT19tJd2+Oj+7fceeXaW37NtdemN5SfsEvT40VEvpJcxdXcQW/8P2QY9IeW99jmAFc9GODif+FHArCHgcAYguj5sSdAgEXENg4LCAHKrpuVOp7Zt3bCm4O/lYxdLamsBBWjEqSqNh8WXVrGXL5sWBX7bKuGYgqAUEQAAEfIQARJePTCSGAQKWCIybHHCspkI8M3FK9I7dOytvO32yelF7a0i8IAZrBW0AKSfST8ozHelncjTayj3h76ILyWHxJwcCIGA3AYguu5HhBhDwPgLRvYRG6vV35SX6nQf3Vdy4Z2fRzblZrbM62iOitdoLXY6kKDqsjJItXP4uurxvEaDHIAACPU4AoqvHpwAdAIHuIxCfoK2i1t45l6Hftnt78W0H9peurCjTjRQ0EZGCGCAdpq0nOxepKhZV1uKSILq6b9q8tSXEtXnrzKHfbiMA0eU2tKgYBDyXwJCR2syGWvHZSdOiEncmVt2ZnFSxpKkhqK+gCY3UCPS2YIjWsvXQtPW65wJAz0AABECgBwhAdPUAdDQJAp5AIDxKYBfivtpK8VjKscjLEjfn3Z2V0bCgtTk4gSK62OfICb5wmSeAmC6sDBAAAbsJQHTZjQw3gIBvEYiKE5poRD8U54sHDu0vX7lrR8Ed+XnlCaKmj1hfIwoR0Razd5lYumzF3vsWNxujgRVQRd4Rv1oRGCwIEAGILiwDEAABiUDfgUIpfXsr/XTTrl3bQ24Ki+iotJATQj4MWyEsZMMPskhgOREBaTcsG0qRbhfrAQSUBCC6sB5AAAS6EBg1NvRUfa3+qdbWjtBIM1YuPUfbGxJ9KUSXrVyp8lFEEGXesNyUGUTUyiYt59SlFXF+hqWfMOHeMOHoY7cRgOjqNtRoCAS8h0BEFD9CNZxmwtzFYivYKLwsD0rKbC/rMluizHvY+ENPLxBaPI/Go6IsjZ9yu51XWFyB9AXR5Q/rBWNUTwCBsupZoSQIgICBACsoE0uXLTQweNgi5Nmv2w5RY9HV5RJpO4YonbaOCwRAwEgAfxBYCiAAAnYREChDl17f0iyKbW2GdF4WLrKOSLntYeywi69HFuZJtzWPnWUoz5vYoWnvaMUOT4+cTHSqJwlAdPUkfbQNAl5IIDJa2zFmfMiWhAFtSaK2ulYvkvaSrBwGS4d0gJDRP2WQXLatJF6IQRqqlX57/aANHkKavQsOP2dRZbRcSu7j80Pl34v6xraw0PqcBQtGrAsN1dV56dyi2yDgFgKI6XILVlQKAr5N4KJLY7/PPN1yZvvWknsPH6i8rrY6YLBGDA/RCoFkBaMHNT7Oef0CUEgpE+HMJ3Oy51Apt/Q0781tQUFtVWPH9T5y3XWL35g2vffWuFhdq9eDwABAwIUEILpcCBNVgYA/ERgxNvg05fF6cur02M07EovuPJHauKKlKbC3VqAYe98P5fH5IDXapdrFgnl+bRsUtSBZM/nQKD3ZuppqR4yIPnnJpUO+uGLZxNUJCdpqf/pbwFhBQC0BiC61pFAOBEDgAgKUOJWz2ieWFYrJqSk1mymr/QO5OY3TOlqjYgRNoMHxJHmgOJeAz+sUn1gh8iZFw8ZTYw4IxXZGaSMjH86p76BXm1tiYzuyL1067qvLloz7dPyEiFM+AQGDAAE3EYDochNYVAsC/kSgd3+hgsb7aUFO++79e6pW7d5RfEdZqX6YXh8eodWESCHYXh/k5EcTynN1XiKf/5fBrdiu6ehobI2K1BRPmz5o57XXTnxj9uxe+/0ID4YKAg4TgOhyGB1uBAEQMCUwYGhAXlO9+O9xkyK279pedFdKUuNVNZUdQ7Uip/WSMpQDmocTOL/5wbhjsdPKxXFbbZrAwNaKsRPiDi9fPuajefOG/9ArXmjw8CGheyDgMQQgujxmKtAREPANAqER0lP6cFW5eGrajMaftm/Nv//U8aqL21oi4gWK9zIktGePI1tNlDYwuB+7bwXIrC8UwTwn0g5UxaXXt2t02sa6/gMC0pdfMfWjiy8e9dXQYcEF3ddftAQCvkEAoss35hGjAAGPIxAbL9RTpzaUF+sPHd5fe8PuXUV3ncuqn6xvJ5ejECaFeBke8F5p/bKlED18UJYdvloySEqpH6QRtpN1q6G5Vy9d3rx5I3+85pqpb44fH3rG4xYbOgQCXkIAostLJgrdBAFPIdBQ1x6QfqZydkhISNOQoRHJoRHSkUEWr/i+2nJ68a1zme2Je3YW3XZob/2q0pKaEYImLFAQOLG9LADY/Wgl2arFFuRcUY7c6ylU3d8PLe0oJSlFJzMxbys5PUS9RktflN5UExraznFb25avGL166pT+26KjpI0TuEAABBwkANHlIDjcBgL+SkDUaHVHD9WuPHUyfdbCi8Z9X5KnX5swSFtoi8eQEQEZ9XXiM1OmtWzZsa3g7qRDFcsa66OGaoWQzkgv1ZYvOc5I2mKHcx1tsefX9VLGeOMlpfRgCUbpHhSWRsOuxFZRF9BaN3JYSMq11859Z868oT/0TdDVqGkDZUAABKwTgOjCCgEBELCPgBRpHRuVn1s9+Zsv8sYlHS28fMem6vcnTY3e3CtBsPpwjoiULCX7a6rE5KnTG5dt25z3YObZilmtLaG9tZowEgAGMYCrewicF1wswNoIfGPdgIFhWYsvmfLViuXj3x00OKCke3qCVkDAPwhAdPnHPGOUIOBKAmwe6dBqgzTtrZF90s+0XlKQlzd2/KTKZclH6t4fNTbiQHiE0qxyYdPRsUIT/fa74gL9gSMHSm/Ytb3mgfzcmgkafWigoAmil2yERBmSSHny5dEdFLUGq5dkMKQUEKKmtT0iQp9/8aJx3y27bMSaadN7HfVkuOgbCHgrAYgub5059BsEeo5AOymKFtqFSN909OAOC26sDxhyeH/9DdmZDTOmz+q1Pie9bfXQUYGZtrrYd4C2mMq8nnmmbcfuHUV3HtxXeV11RfBojRhKlWsly5dhl6PRNcYqQSG4VLsjbXXEsdc9WliZH5LBFSsY47s62lvEsNDWknETog9ee930N6dPH7AlxpDwFhcIgIAbCEB0uQEqqgQBXyZAusfw3/lILJJHQfTroJiKko6piRvLB59MLV287qvKNdNnxawbMMR2vNeIMYEnG2rFP0+f0X9d4uach06eqFpUXxc8RKsJJ41g+W3KS3c+9uDyMMTAiWKzPkDXXDl0bPSpK5ZNX3PJJSM/691bwOHUPTgzaNo/CEB0+cc8Y5Qg4DICkqFJPiuGtRdbTYw2Hy1ZvjQd0XFF+a0Lv/ysaMyxo6XL9m6vfm/y1OitkbFCi7VOhEcJ7fT63soS/cnjqVWXb0useDDjdM1csSOEMn+Ry5F2OgrUkDLiq4ctXS5j6o6KLmRDYfNiG01dS1Pv3oE5l18+bc2li4etHTUm0qZF0h39Q50g4I8EILr8cdYxZhBwikDniYrn8w7ojfm2JPcfuQTFUE17S2DvtON1y/Jyc8ZPmhy3/XhS84cjRgUfDItUHORnph9xhsOSvyjIbd9/YE/Frfv2FN9IIm6a2BEeqBX4LYtEHrkb2bnJli7Zx+dh4fc97npUWgGZV4e+WR8Tqz83a0a/zVddNeO9mTNjDju1DHAzCICA3QQguuxGhhtAAATO+xbPZ5fvSoW3OOpIHsWENdR0jDmwt65/2smS2YsuHfJldnr7l8NGBdi0rgwYHJBHdf77bJq4adf2gnuSjlReWV0hDBH0UcFd83t5mNzqweVxPsu/nPGfE502dYSENJeOH9/n0JVXTn1/xoy+m+LirFsde3AIaBoEfJoARJdPTy8GBwLuICAFdLHFiSxdJikeTHYVGmxi5HLUR0bWVoVOX/9tyfDjKaWX/fRDyZo58/p8G9dbYKuW1Wv0eCG1tlp8csq06I07tpY9cDy5+rK21pAYrYaOFOJ4L618nJCtmnz/dcOxSiy0DOckarXtjQMHhpy++pqp71y0YMg3AweFlPo+BYwQBDyXAESX584NegYCHkkgIkorvv+/StpOqKddbrzRzUp2c0kBSMqLBBLFZXVoY7LONi4uyC8Zd+Rg3bUHdze+OXZi6A5KIdFsbbBRMdLrmytL9YeSkmqv2rE1965z6a3z29tCw7VUr8huRtUGL7m/npnBXtat5sZj9TXjmYl6mhZR09zSO17IWbxoxNfLV0x5b/TokCyPXEzoFAj4GQGILj+bcAwXBFxIwM64JY77CiCnY5S2rVHsl5bSsOJcdtro6bMSNqeltH48ZGhgSni0FExv8YrrI8V7rck/J+7cv7P0tn17im4uLhbHCWJMqEYTyCYejWC0fFkOsrelzuQs9y4kZaMqZ1tkA5cgxdM1t0RGthXOnDU4ccWKyasnjI/dF2kjhq77RomWQAAEILqwBkAABBwhYKfgMjQhu7+kIHg6e7GxNmjc7sTaQZlnaufMmR/9deG5js/7D9Hl2+rQwCECx3s9R8Jt285t5fccOVh9TWN9YD+NEKJjy5ely5gwwUr18tZMW8LMVg/tS6uvPNXImsVO+VqnJ1fPrsQWfVBQa+WoUfHJ11w74a3Zswdu6B2va7TZSxQAARDoVgIQXd2KG42BgPcTqK/VC1+sYYOTrbTx5sd6PtibBI42kA5XDowozGuau+6bipHHjtRfu3V97dtTZ4avj++rq7JFa/yU8MMU73Vi9tyE7zb+mPFo+tmGi5sb9HE6IdB4pFDXGqxKKUN69i7JV22176rX9VYlLL3ICsskyb9A5i1RT4ZBoaVh8KDA08uXT/340qXjPhnQP5APGMcFAiDggQQgujxwUtAlEPACAg5ZunhcsrVLUm3SNkjKPS9Qiom24PicrOYFn3ycMTA5OWrJoT31ayZMCt9OLkerGdIp3ouPFNpSXiweO3Ko6rqd2wvuOpdZM1kjxkRr9EGKA52dtl7ZOy12NMhFrSE1qUrK0F9fHxMrFl68aPS3Vyyb9NHEieFp9nYQ5UEABLqXAERX9/JGayDgKwQ6U6Q6MyCR8nvJWkMrHXYdSnabkKFH9jcNyEzPmjl9Zvi69FMta0aNCz5pq534vgJbeN7NymjevX9n1ar9e8purihrGiWKYQFasnxZvoxiR9I9qnWSw6LTfD/kds1Ve56RKHaQK7G5LSxcXzJpYsK+lddPfmPixITdOLrH1urA6yDgGQQgujxjHtALEPBLAhce48N2L8rwJYQHVlcETtixpWlAakr65V9/VvnhnPmRXw8cElhgC9TwkSFnGurEp2bQGZCJW3LuSTnaeE1dTcAAQQihEHtKX6EMoJIqUwgtzniv0D3qNdgFvVKt3gx3nt8Bqsy1dX4zAGeTbxUDA1qrRoyKOnbN1RPenTd32Lr4eG2DLR54HQRAwHMIQHR5zlygJyDgTQScsPRYyyF//jXOw6XRB8dUFDdP//bLrL4nU8MWb/+p5osZs6PWRfUSrIqN8EjJJXmktlI8OWly3Y69u4pXpZ0oX9jRFtNHEKleKUyK00xcqI26CC2TA7bdNUGUw19yu3Jsl3yspeR65R0HmjbyJTY39O+vy1y6ZNLapUvHfzxsmG3x6a6+ol4QAAHHCUB0Oc4Od4KAvxNwUHhZS5CgfM0giAQSX/rW3v3TUpquPZeVNzspSXd56tGmd0eMDjloFFcW5yEqTor3+qo4v333oX11N+3ZWXJXQX7DOH1HaIRAcWQG36adRil3zLok/jiLv+FsSalXYjvpr6bGmBhd8dy5ozauuHLsu1OnRie7o3nUCQIg0D0EILq6hzNaAQEQ6CRgLSmp+dco1F6j04ZpmxraB1C8123pZ9Lnzl3Q5+v0M02fjRoTajOAvO/AgBJq/rWcjLZNu3cU3H5of93NZcVtY8iNSUYmY3gauxalBKMKLWmSYV8xiQ4KTvPLQN+Z2Z/apyB5Ud/aFhysr5w6rc/2a66e/O7kyQm7omOENiwiEAAB7yYA0eXd84feg4DPEzhvi2I7EKWC0AQG11a1jdu8ofDhtJOlC7//ovyruQt7fZXQX2BhZfUaOjIwvb5WfHrCpKYdu7YX3pl6tHxJU1PEEEFjtHpR1JeLDF/2mc+MPk06ukcM0NVXDB0ZmUbJTT9csGDEt/37a22mzrA1brwOAiDgGQQgujxjHtALEAABOwgIGjr6Rx8fn5vRvLikoHD80cOFK/btrH1z3MTI7bG9hHprVUVESVnvd1SW64+enNW0dMtPeY9lZ1VNb2sJieXUFRoOtneN8pKchmpMYnqxRdRqmmrjewcWXbFsxsdLloz4dOTIsBw7kKAoCICAFxCA6PKCSUIXQcCfCZg1GbEbkHc56kI1bS2Bfc6mNV9RmHdu4uRpMRtTD9d/OGJM+IHwKJNsoiYQ4+K1dfSrb4vz9fv27S689cCeutvzztVO1GjCQtmiZlYuSYH1XJHkg7RqzeI4eCmnqbFdLckqke6Xjws3nFtJewXIlRgR0VG0cOHwH65cPuGDqdNjk/x5vjF2EPBlAhBdvjy7GBsIuJeAGiOOe3sgpbCi8xyFCG1jffvg/burbsvKqJo2a07CDznp+s+HjtJm2OpA34Fadku+nHGidfvuncWr9h8oXlFfFTFWI0YESfFd0iiNmeqlGC92QZrZ9ti1IS6pl3YgymdBGjLBGqqiuC1KAaEPDm4pmTC+18EryZU4a/agDXFxQqut/uJ1EAAB7yUA0eW9c4eegwAIKAiwy1HQxEWUFLbO2ri+YnTKsaIlm9ZVr542I/LHPv11No/GGTkxKLW+Wjw1Y07Cuo3r835+6mTlxU2NgQlaTXgAH9RtMGwZ82kZNhnauiSJ1qnPJK3GYqtFDNA2Vw0eFJFxzTWz3144f+D3/QcE2eyfrcbwOgiAgOcTgOjy/DlCD0EABFQQENh1RwYozj7f0a6NzssJWPzJ6rzxxw6HLd+zrfLTydNjN9GRQS3Wqoow7BDcV1Uunji8v3TlPrKcpZ+pnS92hEewRc1wyaYvFZ3qLMJ9a6OvltY+fQKzLr547Ndk3Xpv5MjQbHtqQVkQAAHvJgDR5d3zh96DAAgYCcjpHqTvFAwvaMI07a1BfVKS6q7KyqybNi21/pIzJzo+GDNRl2oLWmy8UEtlPszLat91YF/F9bt3FtxYXhw8UdSHRbCoo3gyzmdq0b1KL/H/tJzs1HAwdXNHeHhL7oyZ/XZee92Mt8aMjjscbeNMSVt9xOsgAALeRwCiy/vmDD0GARCwQKBLqBVZvgSRxVdMeF21OHpXYt3Ak8eT56/9qOTL+Qvjvhw0PPCcLZCDhgdkN9aL/50yrdeW7VuK7z52tGJZdXXAUL3YEUAOxvNn95hURDqLtkDqBb2+URMSJJaOHh13bOXKi9+YPiNhS3wvXaOtdvE6CICAbxKA6PLNecWoQAAEjATYHKXlgHgxIqyiNHj291+XjEo9VnH5lnVlH82YHb8+LkGotgYrLELaBZlaWy0+OWl6xNY9O6vuSE4qWCwKAVaC3jtoa2JDw9AhcUmXXzb248WXjFo7ZHBIESYFBEDAvwlAdPn3/GP0IOAMgZ7fvaii9+cj3rVkmuLzHINiM9PrLi4qyBt17Ej18uRDHW+OGK09EGkj47sxHuyn4kLx6LhJAWTxKoy21Hx4RFvV1VePfWvB/KmbpkzB0T0qpglFQMAvCHjFm6ZfzAQGCQJeQqC+Vq/9Yk31y4mbCu7XdERRNlGLXjYPGJHhLY53DRrSPxhTP/DvKE+WKDa1RsU1np05J37DxYsT1oyZGHJcbadrqjsComN0nGgVFwiAAAioIgBLlypMKAQCIOB9BIw5tajjFNMuySzSXoa0pvw7DrsSwoLqqoInbttUOyzteN2lX32av2bewn5fDhisK7Q1XgguW4TwOgiAgCkBiC6sCRAAAR8lwI7Frum0uhxmLQkvyhJPmeK1QnR4UX7j9O+/LhtwPLl+6Y6NDR9NmxH2U3Rv60cK+Sg4DAsEQMBNBCC63AQW1YIACHgHAcOBPmT3EsK1HS1h/ehIoeX5OafGJCfFLj2yr+GLcZPCdoRHCoYze3CBAAiAgBMEILqcgIdbQcDPCfhcTCin3hI0IbrmpoBRh/Y1DUw/m71wzoKIL7LOtnw+fHTwGT+fbwwfBEDASQKeHAHr5NBwOwiAAAg4QoDTS1ACVCEytKosePymdTW//N9L6e99/2XNYyX57f0cqRH3gAAIgAATgKUL6wAEQMARAj5n5boAArkcBSFEI3aExOafa1nw5afZI5KTgi7btbX248lTIzfHxAt1joDDPSAAAv5LAKLLf+ceIwcBEFBDgPwBnN9LbAvqezq1eUV+bu7EyVMDFqWl1nwwfnL0MTVVoAwIgAAIwNKFNQACIOC/BBQ5uxgCGbakS/o1n98oRdhzBAYnpOeLdzmGBdZX60bs2l6ySiPU8+HZEF3+u4IwchCwmwBiuuxGhhtAAASMBHzWxciCyyC6lCknDCkoBLJ6aTUR4c1NWosZ6bFCQAAEQMAcAbgXsS5AAAT8k4Bs2rIwevnwbLZ8KS+jFuOIL//khlGDAAg4TACiy2F0uBEEQMCXCHQRV/I/LAszEynmSyQwFhAAAXcRgHvRXWRRLwiAAAiAAAiAAAgoCMDSheUAAiAAAkxAad2y4Xqk0rB0YdWAAAjYTQCWLruR4QYQAAGfIGASrMUh8vzVKb6kmK0L3yKlcHpD6npcIAACIGAXAVi67MKFwiAAAj5DwMSadV6DyWrKvDGLX6Wy/B8uEAABELCLACxdduFCYRAAATb0GL/8AIZVZQVblx+sAAwRBFxJAKLLlTRRFwj4FwHYevxrvjFaEAABJwlAdDkJELeDAAiAAAiAAAiAgBoCEF1qKKEMCIAACIAACIAACDhJAKLLSYC4HQRAAARAAARAAATUEIDoUkMJZUAABECgKwFpEyOggAAIgIA9BCC67KGFsiAAAjIBBNFjLYAACICAnQQguuwEhuIgAAIgIBNorreduh60QAAEQEAmANGFtQACIAACjhGAe9ExbrgLBPyWAESX3049Bg4CIAACIAACINCdBCC6upM22gIBEAABEAABEPBbAhBdfjv1GDgIgIATBOBadAIebgUBfyUA0eWvM49xg4DjBCA4DOzAwfE1hDtBwC8JQHT55bRj0CDgEgJIG+ESjKgEBEDAXwhAdPnLTGOcIAACIAACIAACPUoAoqtH8aNxEAABEAABEAABfyEA0eUvM41xggAIgAAIgAAI9CgBiK4exY/GQQAEQAAEQAAE/IUARJe/zDTGCQKuJ4BAetczRY0gAAI+TACiy4cnF0MDARAAARAAARDwHAIQXZ4zF+gJCICA9xCAlc975go9BQGPIQDR5TFTgY6AgNcQQFJQr5kqdBQEQMCTCEB0edJsoC8g4D0EILw0Gli7vGe9oqcg4BEEILo8YhrQCRDwOgL2CQ7BvuJeRwMdBgEQAAEVBCC6VEBCERAAAbUELBjARBjG1BJEORAAAd8lANHlu3OLkYGA2whYNlyxuFIKLNN/u61LqBgEQAAEPJ5AgMf3EB0EARDwNAICGa5YTZnxGepN+uqzbkWfHZinLTb0BwR8iQAsXb40mxgLCHQDAYWnUFTtNURMVzfMDJoAARDwdAIQXZ4+Q+gfCHgYATLxCHqxRa8X29q6uhI9rKPu7w6sXe5njBZAwKcIQHT51HRiMCDgfgI6QWzvnSCcDYtsL+8QG8nHyC7F8/pDFM1oEdUmMff3Hy2AAAiAQE8RQExXT5FHuyDgpQTCI3RiZZn4cXR0cGnilry7s842zhbbo3oLYggZvkSNIBgC6fm7WQHmpeNGt0EABEDAWQIQXc4SxP0g4IcE4noLtTTsLwvPte47uK/uhp3bC+8qLW4aJepDorSaYHpJC8Hlh+sCQwYBELBOAKILKwQEQMBhAv2HBBXQza9knm7bvGtb3t2HDzbfUFXeNlArhIaKGh1tcUR+Lofh4kYQAAGfIwDR5XNTigGBQPcTGDE28HR9tfi3iVOatu1ILLjreGrForbm6EEasnqx8GI3o+x27P7eoUUQAAEQ8AwCEF2eMQ/oBQh4PYGIGKGVBrGlvER/JCWp6Yqtm3MfKchpmtDWFhRHli/J5YjjCr1+mjEAEAABJwhAdDkBD7eCAAhcSCA+QVtFv/2sILd9z94dxbfv31t7W3FB/WitEEbBXuxydDzeS94EKTktezZhQ8+2joUHAiDglQQgurxy2tBpEPB8AgMGB+Q11Ir/njA5ftuu7aV3HDtacVldVehwjSY0SCsYstVY2uEouSKNqSeU6gY5Vj1/3tFDEAABywQgurA6QAAE3EYgPErooMoP1VaJJ2bO6rtu66a8h8+erprX1BjUT6cNJ12lM9s2Uk24bUpQMQiAQA8SgOjqQfhoGgT8hUBUrNBIY91SXiwmHdpfesOeHRV35WTXTBU14eFaMYA8hRxub9jpKLLf0JjrS7KGeaYjD9sy/WXxYpwg4EICEF0uhImqQAAErBOI7ytUUIm3szPbtu3fVXHL3l0FN1aUBY8XxIggQTBYvSTx5ZlCC9MLAiAAAk4RgOhyCh9uBgEQcITAsBGBGY314rOTp/bakrgl/6ETyVWX1NUE9NcKESFaIYjcjny0EC4QAAEQ8C0CEF2+NZ8YDQh4DYGwCMlxeKimWjyZmlR52a7E8rtOp9Vc3NEe3ksg4aURux4N2yXoXvY54kxHr5lvdBQEQECjgejCKgABEOhRAtExQgN14Lvi/I4DSUdqr9q6MfOe0qKQySS+IrUCxXsZE6t2Ca6H2OrROUPjIAACjhGA6HKMG+4CARBwMYG+A3XFVOW7WWfbd+3aVnrP0UNlV5WViMO0QnSERhOoaA0BXy5Gj+pAAAS6iQBEVzeBRjMgAALqCAwfHXC2sU78y5SpEVt2bq+4IzW5fllTQ2A/QUPhXrTTEcc5quOIUiAAAp5HAKLL8+YEPQIBvycQFinl99peUSomnzrRsG7TT9mPnMtqm9XaFB6rEwI7dVcP27yQNsLvVyoAgIB9BCC67OOF0iAAAt1IoFcfgY8U+q4oTzy8b0/FrQf3Fd+Qn9M+XqOPihZIfKm7WBs5Ks+cuVdd71AKBEDAfwhAdPnPXGOkIOC1BPoNEgooxcSLkyaHb96VWHnXoYOV19fX6gaK+hDK7xXQmVrVvLSSDVKGV7v+ywwS3hmJQH2vXSvoOAh4MgGILk+eHfQNBECgk4AxxcTxumrxT9PnxK3fvCHr4TNp9YuaGoL7arWhpKVMvX3yv7vm/LJp8+oiuGyWxgyBAAiAgGoCEF2qUaEgCICAJxCIjBFaqR87q8rElKOHaq/atSP/9qyMsun69ug+ghhstGWxtYqPE3Kyx7B6OQkQt4MACCgJQHRhPYAACHglgdjeQjV1fE1uduveA3urb9yxpfjemqqWIfqOkDAtx3ux4JJCspxQXs7c65VU0WkQAAF3EoDocidd1A0CIOB2AoOHBWVTvNd/pkyN3rx9S/69SUfrr6qtCh6m04Zou2a1V0RzwYLl9nlBAyAAAhcSgOjCqgABEPB6AhTvxYFbKfU14hPTZjZu3LEt/85TJ8rntzZFDhaEUBJfBsElSN8E2stoLlYLOxW9fiFgACDg4QQgujx8gtA9EAAB9QQioqV4r42lhR1Hk47UXZm4ufCRovzqsR1toVFabTCFecnnOZpzOdrc16jsiBM+S/XjQUkQAAHfIgDR5VvzidGAAAgQgT79dWX0bXX+ufZtO7bm33PkQN3KksK2cYImLFgQWHiRtct4puP54K+uuxwBEgRAAARcTQCiy9VEUR8IgIDHEBg4JCCXjhR6esq01i07thbfnZpScUlDbchQjSYiSNCw+GI3IzkbeaOjfbYr+0p7DBF0BARAoCcJQHT1JH20DQIg4HYCdKQQm7D2V5WLJ04c77UkcXPRg1npNXNamwNitJpQnaCh5KocWG//5dBN9jeDO0AABHyFAESXr8wkxgECIGCVQGy8UEcFvistFvcd2F9y/d4dZavysuumiR0RkYKgo5dgvMISAgEQcC8BiC738kXtIAACHkagT1+hlLr05tlTrXv376686cDegquqK4NHafThEVJ+L2vnNEqpJnhABmdkSIRjJjIPQ4LugAAIdBMBiK5uAo1mQAAEPIvA6HFBx+trxdPTpkdvStxY+sCJ1KpFDQ0B/bRCRAi7HFUckg33omdNKXoDAh5PAKLL46cIHQQBEHAXgYgooY3q3ltbKR47nhx92ZaN+fdnptfNa28PjRc0gRqhM8WEsQdSvi8pn5chAh8XCIAACNhBAKLLDlgoCgIg4JsEouKERhrZ9/nZHclHDlVdvX1r7m1lJQHj9fqoaK0U72W4zqeZ0CC/hG8uBYwKBNxKAKLLrXhROQiAgDcRGDhMd476+1rm6Zbt27ZU3n/0UNmK6iphoFYTES5Zvjpj7aVYLli6vGly0VcQ8AACEF0eMAnoAgiAgGcRGDE2+CTFez05bWbYhu1bSu9OO1F/SXNTUIJWDKb3TMnyRYJLi+2OnjVt6A0IeDwBiC6PnyJ0EARAoCcIULxXM7W7taxITE5Oqlm+c1veHTmZzVM72iJ7k+Qi5WU80LEnOoc2QQAEvJIARJdXThs6DQIg0F0EevcTyqmtj4vy27ft2lp994F9xTfkF5QP1GtC4V7srklAOyDgIwQgunxkIjEMEAAB9xLoNzCgoLFe/8/J0yM2JW7R3x4Y2MDJVnGBAAiAAAiAAAiAAAi4iwAdKRR5Lqt+qLvqR70gAAIgAAIgAAIgAAIgAAIgAAIgAAIgAAIgAAIgAAIgAAIgAAIgAAIgAAIgAAIgAAIgAAIgAAIgAAIgAAIgAAIgAAIgAAIgAAIgAAIgAAIgAAIgAAIgAAIgAAIgAAIgAAIgAAIgAAIgAAIgAAIgAAIgAAIgAAIgAAIgAAIgAAIgAAIgAAIgAAIgAAIgAAIgAAIgAAIgAAIgAAIgAAIgAAIgAAIgAAIgAAIgAAIgAAIgAAIgAAIgAAIgAAIgAAIgAAIgAAIgAAIgAAIgAAIgAAIgAAIgAAIgAAIgAAIgAAIgAAIgAAIgAAIgAAIgAAIgAAIgAAIgAAIgAAIgAAIgAAIgAAIgAAIgAAIgAAIgAAIgYIOAAEL+RaCoqCimuro6jkcdGhraEB8fXx4REdHB/25sbBTCwsLE4uLimMrKyl78O3qttlevXuXh4eGiq0lxe0ePHp3V1NQUPmjQoJw+ffoUU1tN1topKyuLoq8+giCI1Nd67ptWq9Vzv/m+qqqqYBpfbEtLSwj9k9e3yGUDAwPbQkJCmmg89VFRUW2uHgvqAwEQAAEQAAEQAIEuBJ566qnfBwQEiCRUxGXLlm3Mz8+XxJXy+te//vUbFipc5t57732HBBgLGJdfdXV1Addcc806nU4nRkdHt7z99tt3W2qEBRq/tnr16tu5PPeN7y0sLJQEJF+7du2ac/fdd38wfPjwXBJY+uDgYJG+9PRzx+DBg4sWLVq0JykpaTyXbWhowAcOl88oKgQBEAABELBGIAB4/ItAR0dHQHt7uzTo1tbWYFE8b8CSLV1chn/PX1zG1YTkdqhekdrS0ZempqYmiKxUFwhA07ap70Fcni+ykEXSN0k8bdu2bcEDDzzwydmzZ4eY3MOvC7m5uX3z8vL6kpiUXpa/y31R9MnVw0V9IAACIAACICARgOjyv4Wgl4dMwsOgXi68TMu41LUouwKNzUp1k+WKhZDNdmJiYipGjx59jgShlixaZ9htWFFREfbII4/8ShZcZN1qHzNmzKkRI0acZXFFFrWonJycUeS+LCH3Yp1yuHJfTPrkf6sCIwYBEAABEHA7AYgutyP2nAbYmvPcc89pFT3iny9ws8lWIGM5yVIk30PuvFhyN8aRkIlk4UOxXnVDhgzJJTHUYm6kWVlZfcvLy3uThSowKCiolcpVURxWRWxsbLOxXqk/bFWjdiWxR3Vrye05iGOzKP6qdujQodmyKLr00ku3bNy4cSHfS27D5t69e9eeOnVq2IkTJ6bzvdz322+/fTW5SH9HIqua3Ihcv8gxXmRJi6fyJVxOro9dp+fOnRtGVrMwcru20eulw4YNK1aOpb6+XkeWuGgaQwCLNo47o0tL8XF9uT621tXW1kZzO+QmraGvNnbbUmxc/7a2tsB+/foV0BikdnGBAAiAAAj4LwGILj+aexYa//d//9fFmkQWJoOvUSFEWDwosVAMlT4jI6Pfiy+++Kdbb711OgsuEjMRLJSozrr+/fvnf/TRRx/edddda+X7Tp8+Pfitt976+W233baYA/dJmASSqGmPjIysHTVqVBq5+35NbZfJQovFUmZm5kgSS4/fcccdCwsKCoaR0OlFoq7+nnvueY3ae4t+7ti3b9/CZ5555p/UjnbhwoVbqe6/ksDRkaAM47apTOuSJUs2s+AyxoFJY4mLi+MA/Tw5NoytYx9++OEDq1atupraGsyijMbZTuXKn3jiiW3Uh/cnT56czveSuOr35JNPvkh9HnHdddd9lpiYuP+Xv/zlndS/2Ndee+1+2gww4z//+c9fuY5rr7127dNPPx1Kwu8qCvjvS6IrICEhofiVV175iPi8b0mc+tEyxFBBAARAAARAwD8IkOh60iiqxMWLF2/Lzs7uwyMn8cLWnED++R//+Mfv5TIkPlZzwHtqauqIkSNH5si/N/1OuyBr1qxZcxPfT5atMApof89SWRIh5WRhCicLknDllVdukMvRbso2DpI3vY/Lk3XrEq773Xff5WB7qczSpUt3kLCJPHny5HCyThXy78iqVLFp06bFXJYFlumXsX8Rv/jFL17iDQWW+jhr1qzklJSU0Vw+OTl5DNVbymXJylVFY63kn8m12U5xYr1JcN4s10XWt3ajm7RL3RzQT5sAVvnHKsMoQQAEQAAEzBGApcv/1kWnFSs9PX3MX//613899NBDjb/97W8lV+PDDz/cvn79+plKLHq9XktCo2zlypWfkStuOLvLWFiwFWfz5s1XUj0jSGhF0X3Xk5D6loRcP7JISSKJhJSedkl+R/FVGVwPiSTSUAnFJEKajUH8nf0hl520HmmnYT67+sg1OYz/XVJS0ovitcbQj9vJOtaZ7oFED7soO92S/DOnj5CtZ5bitHbv3n0xCaCHeUMB73AkgbVv+vTph6idvmTFupLHcvjw4Smff/75XVTln7lOco1K7ZKFLEZmQ7Flp+j+FmZBr3dQfbrm5mYduRyrL7rookQaZxHtqFxConAcWcEEqu9ustitJWtcZ8yc/y0/jBgEQAAE/JcARJf/zr2G3Gr9P/7443ttIOAdhgK5EGtLS0ufIZHRSjFLrfI9L7/88unHH3/8dS5DVp+hJFh6cewTiY9QLkOxW2U///nP/0tWqT3yPRRbFcquQrKg6ZTB8+TOO37//fe/sWDBgt1UT/zvf//7l8naNJnvI9FicRclibfOmDPlz5bGRfFfk6ltqT4WR+T6e2T8+PEZZO0LJCvfsy+99NJvSSBqyG04l8oFkYhkYdjZBomqGhKqL5Gr8RtyY9aSm1Int0Wu06xnn332N+Ti3EKuyoZ33nnnbhKy7xMfLQnWoVQvl4Xo8uO/OwwdBEDAfwkog6r9l4KfjpytNGSNKSVBVWj8KhowYEAhB68rkHByUUkkkMCop28iiZC+FOM1iERWPAeWk0VJEmEktEJYHHHsFseB8e8omDyBYpz+8frrrz9EFqbZfA8JMTkBKmkkg2Di3Yu33HLLxxQr9cbMmTNPzJ07d++4ceNOqJ0aNWKL62KXppz4lf89duzYkyy4ODCe4q3aKFB/M1ut+DUOgje23ym4aFwaElk3UFzZ/5GFLNX0dY5vmzNnzn4WXPwaB+bLwpIEF3KDqZ1QlAMBEAABHyQAS5cPTqqNIXU++ElspP3pT3/6G4mNSqMFRmC3H8Vm3U0WmkcU9Uj3fP/998v+3//7fzdT+oURJEiC2O3GAobipiSrEYsLdiEOHDgw75JLLvnpgw8+uJ8tRjt27LiEvzgBKgmqfRQD9dZNN930BVnEugTsk9jp3AHJux1Z4KmZHm5XYTGzKmyM4qyzXoVYk37HWetZABrHozfuquy0dPFrtFszm1+ncWtJcMpWK/6u4x2dslgjESps2LABH2zUTCLKgAAIgIAfEIDo8oNJtjREssZU0A7AXX379q1RlqEdhAvkf/OuQrJc6clKNY0sUR9Ryggp8J4vzgrPokWRYFUSXWTJaiVX2h9J1KV+9913t6SlpbE7L4IC9YMpZuoSspKNnjBhwvEZM2akUSB9Z9Mm1qougsuaJYuFjlwJ/8x9MB2znPzUJB1GZzwYxZ5ZEng8Puk4IblORf3y7zqtgcZysoATv/76a75NlXj046WIoYMACICAXxCA6PKLaTY/SKVVhkuQMNGR5YbCjzqU60LgPFQUWD5PFlwkmE5QGof3KLi+9NixYzNoR+EjdK8UwyULDLIGldHPr1Cc1DsUPN+bxMdN//znP/9Owiuc4rX6cRA/vZ4muy5tTYOpWDItT2OR4qo40J0C8EfQjzuUZZRB9UoBx7FWynLU3xg54z39nprtNJwpLWiSdctcnZxwlsRoZ9JZtgZCdNmaXbwOAiAAAv5BAKLLP+bZ2iiVVhjpZ6XliP/Nlh2KeZJFlYbOMNz+u9/97iV+jVyI/E0pSKQ6yJo1gFMrkLuuhYLLc0mwvU9B+w+S6BrDwkTRhiV3IP/enGvugvKcJJVSOZSS27MPHVuk+eqrr26jtBEZdIj2OXabsrCi2LIBJAzD6fVtfLC2DITSQcykwPpREydOTKfdi1EUvH8duQclAcfZ7hXgOjnJrkyTo4OkfnEbFDcWTbFtZWwGfPXVV0cbXbfMtUuiWSw9EAABEAAB/yIA0eVH880i4fnnn1eKFrPxRibH8QjsXiRXJOemkq4ff/zxOkoq2ovSH4RTTNh8qlc+EFvgAHoSP/EU+/UGBdyPJMF1inJ9NT744INxlPx0FN9P9bVSgDlbwliIdO78U4o3Yx+UfTUnztgKF0DpKAp/85vfbKTdhhO5TjqH8VLKKzadYsiqje5Pgdyb0Zz4lPJ9XUwB8AdJENZyaohDhw7Np12Im1asWHGSUlsMouz2UzgOjS8K5t/NWfSN/ZLaZ1eqqSjl12Vmx48fn3rjjTeu40z15LJsIlE3S3ZHTp069RgnYPWjJYehggAIgAAIKAhAdPnRcmDBoHSnGYPVL7BSKWOiuAy72CgA/jCJm1wSToMpXmsQfd1mFFAsojSc84qD61l8UGqJBBI+y8jiE0QiZJwp4vnz5++mvFhJfETP9ddfL+0QZKHDWevlsixsOPWE/G+5T0rXJx9+Lf/+3nvvfYvE3lCKIbuB01eQoIrhL2Xb9O9osnj1u+yyy/b8/e9/f54y7P+ZLG8hZJUbxl9yWQ6Wv+qqq9ZRBvn3OI8XCScOjpfEIY/TjOjilySOFDwfeObMmVH8pWybcpuVkEv2bUXgvR+tPAwVBEAABEBAemYCg/8QoNxYIu2m20vZ2F9m4UDpEtJIBDTKBOQYpdmzZ+9/9NFHX2cBRdaePVS2g6xDJ9atW/cA7Wy8j5J9TuaDp+lQ6TQSUHtYyPBROnQAdQanm+Cje/7yl7/8gYTHePr9QDpGZxCJlmCyep2mXFxHyRK0lqxO9Sy6KOHq51wPWYA6KLD+kNwXdu2R8PmOUlqUcF9JpB3h1zie7LHHHuO+acglmMy7Dfn39HMGpaN45PLLL99AQf+L6WigwexS5CSrtFGgkOPPSDSmcwoHLk8M/kv3pJLl6yq2wHH/aQNABY0hncd/zTXXfEs/c5Z7Dbkuy3/2s5+9TKKtD/eLy5muGjlOjFJulNAYj/EORnKpDuLykyZNSqJNCGvYLes/qw0jBQEQAAEQMCWAvEF+uCY4KSkNW0qzQHm2zO6s40OnGQ3vUGSxJmPiI374zEESE60ksKo5txW/xuVN66MkqMF8kDQnSuVgfD530XSnJOfNkncHsoVJ2ZZcr2k/jH3j/kv5vfhSBrXzuYrcLsehcSA7x3xxOgoSXJxnTDoeSC5PgfPBJP4i+exGLmM80LpTiMrjNjLjf4o0Dsn/KNdDebtWPfLIIx/SvwNpN+j+//3vf/dw3BiNLYaD6jklh/HsRz9cbRgyCIAACICATACWLj9cCyQaOnfXWRq+LCxMXyeLEQuSTlEiCw9z5ckixHm3+KvKUjtG0WcxpYKyXmttKesny1SXPpprWz74msSX3McuxUiICUoBaIGZnEqiM6UEi1QqW0/ikhPMdiaZNQm698NVhyGDAAiAAAhAdGENOEXA0vmGTlVq4WZ725KFFVenvNe0HnPlTC1utsYjx3lRjFmAvFuRk6fSfSK3Z2/fbbWH10EABEAABLyPAESX980ZeqySgFqho7acmWYlCx1vTuDDv/mIILJy1dB3yeWKoHmVE4ViIAACIOAnBCC6/GSiMUzXE5DFGp0RmfaHP/zhH+R6Lafg/BSK4bLoTnV9L1AjCIAACIAACIAACIAACIAACIAACIAACIAACLiagDI2zNV1oz4QAAEQAAEQAAEQAAEQAAEQAAEQAAEVBJCnSwUkFAEBEPBNApRzLpDztFEy3UGUzHcc5XiL54S+lL8tVj7aiWP06ESBAj7WadiwYZn9+/fP5/g9Oq2gmfKvNfsmGYwKBEDAHQQgutxBFXWCAAh4NIHc3Nw+dO7mXD6RIDEx8XI67DyBj7EyHkd1wZmkvDOVk/HyCQd8fiYJrwI6aSCVTy9YunTpRjom64RHDxidAwEQAAEQAAEQAIHuJEBWLd1XX311DZ2/uZVOKuDEuJz2w6mv//u///tTd44BbYEACHgvAaSM8N65c6jn7E7hT/TGB43aOixljDe1lFrMLK+2ITPllFnfBbY0kLun1Yn6cKufEqBjqUL/9a9/PfHqq68+Tu7DKEcwsLWLD45XXoMHDz7nSF24BwRAwP8IQHT52Zz/9NNPV69du/ZeYwJPPT1E9PJhzRYEjxpC7nBTmwo4gcRiCB0avZk69LKaTqEMCMgE+HD1p5566s8vvPDCk+3t7Q6DMRVcXNHQoUOzHK4QN4IACPgVAYguv5pujSYtLW3it99+e5W3DptcQk0QXd46ez3X7y+//PLWl1566XeOCi5zFi4eDQXUV9AZo9U9NzK0DAIg4E0EILq8abZc0Fc6kNnmYdcuaMZtVVD/HTdTuK1XqNiTCWRmZg5YtWrVr5qbmwMd7ac5CxfXRQH1hXROZ4Oj9eI+EAAB/yJwwS4d/xq+/4y2qanJHS7AngDojrixnhgH2uwmAhs2bLg6JSVlmtwcW61cdQ0cODA/IiKizlX1oR4QAAHfJgDR5dvz22V0yJjuR5ONoUoEioqKYjdt2nR1S0tLp1XfktVKiUytMEtISCii/F2NwA0CIAACagjAvaiGEsqAAAh4JYHCwsIBe/funW9v52VhRjGErSSqyDPZHELxYFrazNHlPZNEVzHFdCFBqr2AUR4E/JQARJefTrwXDxvuRS+evO7u+rlz54ZSqogYe9oNCwtrpYSnP82YMeMwiaqS3r17l5aXl/cmS3FYbW1tFCdSLS0t7ZuTkzNs3LhxSIpqD1yUBQE/JwDR5ecLAMMHAV8mcPr06fH2jI+C4pt/+9vfPvPzn//8ZRJbFmO1SIRF0Fd8dHR0tT31oywIgIB/E4Do8u/5x+hBwKcJFBcX97NngFdcccX6xx9//N8kplrIsmU25pXPZCSXYz3Vy1+4QAAEQEA1AQTSq0bl3QXpIUFhKqKWv1w9ErVBx65ol/qPDwquAOkHddTX12vp8OrBaofK5yuyS9EouHR0n0iuRr3pF/8tqa0T5UAABEBASQAPMD9ZD8adiyIFBjdyXiHKdyUfryM/QCzto5d/z9877+HAYgoqlgScmt1g/ECjh5d81p10mwK9tT38/Bq3I7a2tgbRA4+To+ICAZsE+KQFykQfbrOgsQD9bTRTCohc4z9ZcEFcqYWHciAAAqoIQHSpwuT9hYwPEDEjI2Pt3Llz9yutU/xwYpeJylEKQUFBLXSG3Z9/+OGHa1Xeo5k+ffrRf/7zn48HBga2srWN27Ny/BBXe4EQ0+v12j59+pR+8MEHaptFOf8mYM+61vCapPXZJosu/0aH0YMACLiDAESXO6h6aJ1s7SLxlU/d4y+nrvvvv7/UngqioqJq58yZsz8yMlJ+qNlze5eyPA62rpHFTq1QdLgt3OjdBGwI+wsGJ5eHlcu75x29BwFPJQDR5akz44Z+yQ8So6tR6S5U2xpbDgRy8fFRPPbGhmnJUiVZr4wBykpLljnxZM7lyOXg9lE7WygnWa+sYbB0piLQgQAIgIA7CEB0uYOqh9cpuxrt7aZCrNl7q1xeegByYLKjFRhF2wWCDJYJZ4j67L02z/sxE4/Y+cHA2XXqCFWKQRNgwXWEHO4BAe8gANHlHfPkEb1kYUNnODraF5e4AmXh1xMPREsDV3O8kiOi0OgOvoCbjfbkzQ4sbl3C3NEJ76n72JLKFizKIG9vF7ps7rDE395K7SnfU4LLZE11riFl3x1dTzJHJU/FBziLa9TR9uzhjbIg0N0EILq6m7j/tsdvrjYtD7bwKK10dK5eDFkGIilLeHR+fv4g3qlGaQIiKFP4cK6H4sdqBw8efC4gIKCdv1MqgCqKLauh77V0SLHdT2RLfXPlw6G6ujooLy9vSHp6+hh6MG2nNhtM27XRnt1CizKsR509e3ZsZWVlr2uvvfYnW3Mgv15RURFCu1j5jJxQEuNhdL5hSG5u7hDO3M6xUZSuYSDPDZenPjcMGDAgnzZhtBL/mv79+xcYd9LW87/py+lYP7lfCkGuv+qqq1TXS0JNT/2TjvShOjrUcnC0HLEJqKmp4TUcUVdXF0WbXEYzN/pdNLPjn3mn8dChQ7NYRPbt27eQNpKUMEs+ZJuSt16wNhzti8masnsNmbZbVlYWnpmZOZrXFI1jG62JLkUctbbbGh+1F0zvAZH0FcVrj9cjrctgPpmA1yivQdqhmjdkyJBsZtmvX79qW3Vae51OJojg+eP3IRpzH3pP6s/rn9vj9x1qJ4fazOP3H5qvkri4OBwZ5QxwH7gXossHJtFLhuD0GzmPk97MEo4ePTr78OHDcx944IHpJE5GZ2dnD1daNZQuI+UuTTrSpWz8+PEnJk2alLJmzZoDM2fOPDB27NhzXK8jVo0TJ06M3LNnz+KOjg4pp5PpPHA8Eb/Gx8gsWrRom+kbvLJNevOO3LVr12LKhn4lH9BMD4jQdevWXUp1JstWCH5Q7d69e3ZKSsp0FgiW5p1i53QTJ05Mnj179gFrlpMzZ84M3r59+9L77rvv+q1bt15BGx320YNjD2diN+VBDzEdsR9CYmAQP8hY5FIS0ZEsEFkgkHDrSw+5SO4T8+exyzF8cj95LuT5oJQlYq9evcpHjBiRMWHChJTXX389aerUqUk0N8dJGLeqXdMkFgcTrxVUH/OQhb20a5HYa9966y1JgKu5KCVJ8MaNG6984403EljwWAvC5x24vNPxoosu2k5rKktN/VyGBFVQWlraxNTU1Kl//OMfp9JczqAxsDiJ4/7K9VhawzExMdWDBg3KHTNmzOnnnnvuIO0KPkzMUkmQ1ajtg2m5ffv2TT927NhMa/dT3wKozbT58+fvoQ8zFj+w0AeehC1btlzxs5/97JrNmzevoL+vtO+///5yEh4VxlhOkcUmrePFWVlZI2neOsWtYkezwO3x2BYuXHjYWr84FxsLHBastJ7H/epXv5rMYu/UqVPjWNDKa1DmKa8/Eq0NtIt773vvvbdm+fLl6+lDQJUafjx/dMrBOG6P2pjwyCOPTKRxjKA2R5Bwlta//DfA3+X2SOjlX3rppZt/+umnNcRwH+eCU9MeyoAACPg5ARIDkrWKdi++Z3zIScHttr6WLFmSSG9YgY7iI3E1+Jlnnvk9PeT200OZPzbbbNNameDg4A4SXUlPPvnkP+ghqPrBrOz/u+++eyeLB1t9GTly5NmDBw9O5ntNXYMstt555527V6xYsYHGxZYLqT7+mR5aFxvv0cr30UPlBVvt8evXXHPN95SNXbIymbZJD4gB//jHP/44a9asI5Q/rbP/zIMeJgPlNvk794/Sg/z2xhtv/Joegqn0cCpT074jZYhT5h133PERPbQvogez1bUij+nLL7/ktCU258BcGWOQvUP3cn0sGn/88celSl6W1jdZBcO+/vrrq2677bY1PE5H+2x6H4mtEhING1566aVHSQz3ceTv6w9/+MNTavpz2WWXbSaRHW+uDfrg0+/ZZ5/9HYmkvSRGZQEsTp48+RSJoaFGRvzhhNdUxNVXX/29rTaZFYsc0/b4AwC/H7z55pv3r1q16pNp06al0KHjtbbqM/c6H2hOdayhD1AjzP2t8O9oLQbRoekz/v73vz9JluBvSUieofcPtqDavXbIulb+u9/97ln6cBPhyFzhHhAAAT8l4IDo2uqI6KLDikPffvvte9kCokbgOPJGSG+ipz/66KNbqH/BaqZTfuBTvrDbaSennPDV4hswPRCqvvvuu+Vctyxa6cET9cUXX1xHInKP8iEl95/qbfvwww9XyQ90thJwu2QJ+5eaMVJm9WQSV/2V46EH1cDnn3/+12wlMSc46Pfphw4dmqJ8QB4/fnwku2nVtOmqMsSr+s477/zg5MmTFsWw0WqiISFztavatbeeYcOGZZN1co6Sl+n6IbeTbufOnXNXrlz5DVlX+Nggux/Uau4hV1YHiY+kTz755Ea161ju65///Oe/qWmDLJGpZOUZqhwjWXn6vfjiiz9nC7K5v09yrxXT+Ocb174kutj1eP31139pq00WN7z+5PboA8GAtWvXrrzpppu+IMtRAQkftoi6hCf9He4mi+MguS22oPH6e/XVV3928cUX7ySBXeGsSJf7ypweffTRl+nsTtWJe9W8L6GMdxCAe9E75slXeqnKxSjv4KI39P70QPgDWZQeobgMl61V08Ss9CAZQ2+C77O7gB4Iz6mIlVEGGtvciUlv4OEUqxXLk8guJLJgLXzwwQd/zW4xiocya9GhbP8BZKmSRZMcC6eKH7dDLr8BHFvCP5PrL2b9+vVX33XXXY+RxW0OuVzMrieOTWGXjPJFcmk2sWuE3TXdtQhJaEd//PHH93BcG1m9niALyx4zbTsdH+jseDhmh2LA5JgxwTRgnFyG4f/73/8efPnllx9nd6yz7Vm7n9zrWnIRTqN19dHdd9/9Llm9nqI4IrZKWrzsdamTG49j9KKMwimS5uZyautX5J5cSOvabDv0ISOE1pS09umylSamSx1kIRvJa4DWbAS52leStfW65ORkyWLs6ovcnQv/85///IH+/n9PbUwjC/hKsmJeRx9chrm6Lf77e//99x8ePnw4u6VfdnX9qM+zCbjsQebZw0TvvIkAxyGxm+s3v/nNq2Qhuk7NMUP2jM9crA4JozB60/0TB93SQ+LPKgO75SOKujRvKupIQAVSgG0/csEk/OUvf/nd559/fif9u4sryDRfFMeokUtKduXwkQFWj1syfZ0eHvEc3HvgwIGpFHfyV4oluYoegFZddvxA5cBn5WDI/cKiq6A7RZfcPvV93p/+9KcX6CF4F1lZztozx91RllzA9RQYXaFoi4WXtGuU4nsCyar4uxdeeOGPxP0CF5m7+kfth1JM2i9IuMaR8Pq1LeFlRgxZ7BrVGUNrshfFU05+7LHH/sTxb7RmOq01JmtQiq/jvyu+hys1+Tu+QDSbrmGOm/vb3/72HH8YoA9gQ9zFTK6XLM+3c3wWf/gikSy52d110YetILKU/4xi+jZOmTLljLvaQb2eRwCiy/PmxG97JH/yZpfiE0888Zdvv/32uu6EQYHUWgrofpx3N1G7rznatjlR980339yyevXqh/nTu7l6zQlLsixIn7J5N57sTrPUJ9P7+dM0Cbx/kntmOlnMelsbi/yw4+B9Yi9bJaRbyLVYxzFpZNWQYpdsiT9HmVm6j9ydc5566qmnyRVzT3x8fNctcK5uzEZ9pmPnQHrejam8TRZc//3vf5/497///Sd6uPbIeywJ+9t5usji+QsKYq+0A5XVXcY0pifJMjypsLAwwbROc2uY1m2gLLpMyl8guszdT+t3gh19d6ooW1hpnS9zqhI7bib35bgNGzawe/wM/317UhocO4aBonYSsDeruJ3VozgIdCFg0SWkDPam+Kp7SaA85C52yh2Npm2wG5OCkp8gd4PV3VyW+mapbrIOzDIVXLaypcvuQbkte1JT8AOMHyC2BBfXLT/syCInyG5Q3h1J7evImtPG293lPrja6qiGI7lGr6HYqUtMyqp2tbpqHZmOnWO0aDfhBYKGdutdzy7F7hBc1tYybTJYRTFJj7O73hwDC+vJmttW2LZt2xJzgkuuX9Gfzno4jYvx9W6fM1fNvSvrUc4Zre2VnLIFgsuVhD27Loguz54fv+odPwQ4kPu11157nASA28ZuSziQW2bQZ599dhe5TqTAXxtXl4eUrbqVddk6F9CYf0x297ntgaV8CMhWCQrk72yPUhSco6Bll+U1swVUKQT5Z3b50maKx8gSEcL/Nt2NqaY+d5QhJk0kulqMmyP4eCo9pUzoR4LrN8QxTtmmNXHkTN+srTeKsxKI28P0NzXXRhv2rC2rsXSmqRm4XRL+/cjdqrOW5sQZBt52r3LOyNo1Xg4j8JR17W08va2/EF3eNmM+2F9lQC/tRruFgmel7dvdcVl6GJI78GbOp9QdfbDUBosu08B2d/RH+RAgN14fWdzIljhOIsnpEexoW95RZsct1osmJSXNOHLkyCzTUraEq8s6YKYi4+45fqVzYwW5xG+00E93dsVi3RyjR7GKT5IFUxKs3XUp1xTHl3ECXaWQd6Yf7hKwzvTJ0Xs5iSsJrx59n3G077jPMQI9Em/gWFdxlycQ4E/1rnrz5PEoXR/kfhtyyy23XOnIOMkaU8jJDjkZIwd/8xszJ0YkEdGbHoJzKCh7NgWnXxBIbslSQJ/OE2hX1kXUlxRH+mPvPeZipUhwRcnuPuWD3d667SlP4+Zdj+wOapYFDSd3pYDxKnIr9aXfS1YRTkZKv6+ghLOl/DoJsyLaAFFP7Jvp51LK/yVvZxP5ocuf5smN0o8TS1Kw8lDjeKx2TcmE7pfmkW7YzRZROcM5t8mWONpJaFoXdV8UqM0E3kGnhgG3x2PiOi2V5zrZYsNri3JQHSVxzu5ZgTPYU/xUPOVHu9sea6eyHY4Ro3jCQvkUBa6Xv5gdbcIYQtYinhe7d22Sa3s27QBka9eOnjjbkXfhcjA8ta/kavc4ZFaO8O3uWES17fFuZk7qSmP7obv+xtX8LaCM+whAdLmPLWpWQYB3KsqZqilodgpl6rZrSzgnN6SdVC9xgkN6WOXQA7/OtFl2+VCuoMWUT+hJ2i2k+lPlDz/8cCMJhrcpb5TqDOkqhmy2iOmDhAK0Oyhbe6Y1AeBoW5buI1cZB81z4kf5gE0ptwRbuTjrOQmsknnz5u2kfqVzJnk+ooa/SIQ38tE0JBpaOY0CxTpdkJOCOAazmOPM65TF/2KOm6OHzWhrY1AyYVcZWx5JeGgpuL+zfkrwepDiYpYZrXLyg1yyPHFW81/+8pf/o3gwKcmsrYvG0fr73//+H1dcccUGvpfrMN7TKRBk0cWv8c5F2vDRaeWiOMBFJCrH22rH9HUWrpQO4XNKGPodH1PDedGU4+Hja0h8x9BuweWUp+oOcztJrT3kKSdcH84Sz6Kru8925B2e48aNO8Hrw14ujpSndpp5cwOLfnJLB8rxZI4INVvt8xxxShX+oMH1885RtujxfWrb43J8qgPfg7guW8R943WILt+Yx54YhT1xIBb7Z4xjEDnLND3ALreUQ8pcBZyZnvLp/I1Fl3w0CT2gtEqXE78x0sO0iO7/jI4POk7i7FtKgmh2B6FpG2T257xdbN3J7S7AnIl+8eLFiZT5+is6N/AHEjC1RverzXxgavto+oCm44lKli1b9iMdB/QWJ9iUWcqB1iRmS+mhfw9bt0hUtakJ6JfjU+SyJFw5iSx/cYqFdLK8HKEEqF/SXIxS229KszGQRBun0Sjleo1WG36YW9xyT5n+LVqtTNul8bGlKY+OJcpQ2yflrjMO9qc+SQ9dtRcl5dz7z3/+89d83A3tnLV12zHKG/URnSbwd8pjdp/yb8XaQ55fYyshWcv6UkLXYnvzc9nqlLnXKVN+KeVX20R5vN6hRL2HSci38MYMd5xpSWdTnqPkrCdJ3J0k62MyzWEufxjg46lkoSofUeXIWJT3UL3No0aNOss7eumorRRONMxnY3IZPpKM5uVe2mxwuaW8Zeba55hF/n13zIuz48f9zhOA6HKeIWpwkgA/QOmhHkDJHS+I2bFWNVkHPqMz3l5nkcBv6PxwIYF1QZZGfo3qYRfQCcqb9Bodw/GSmk+ivHuQjgeZRPe6XXTRJ3M9PXj3UJLWl+iMtq18/qE8dn4zduUbsjx2smzV3nzzzZ9Shu/PyIK1z9oh4FS2mV3LLGhly6Sxf/xp/wIBbkmY8b1GIZxC1q6X6Fgjm0pD5sDxZsYDtEv5d0qrjVHkdVq6uA1OGErjsydulf2G0uYJqk9p6ZK7II1TYe2S/sn/R3md4u+9996x9vwpkFA4TdbXR8lal2r8sGDV2mFcA9RU/u85FojiH29U2x5/gOCAdipfzH8Lcr/V3q+2HJ/QQCECn956661rFixYsJv+NtvkdWNSh8PuRa6HD60nUbeRssVv5w8KnBGfLLKmKUWO0Xr5if+26AzOx9T8zVsaJwm605dffvlPPCZui4UW/b2YvtckkSjeQ0dZfbV//37ppAI1F20akvK4qfkwo6Y+lPFsAhBdnj0/vtQ7q8HVHDBObkDVCRDpDbbq9ttvX00WlCajtcF8SmzDm1mH8SGqoXPq1nGuIYr1sXlOHX0CDeWDbamKH901EXz2IZ15eOThhx9+eenSpVsoPkkSFEqRZYxhcuohpew/iZUmOgtzK7fJDxF6gKlynxpj+ZyycCpyjoncNh0Tk0v5yAar4csJXy1tLDA+sLr0jV2R9ooLxe67DntiF1nQUMwbixpVF1sb+SgYFlz8ocDchwXTiuR1QN/L6YDyl+k8wAVGIWWzTRKs8WQp5BMOjtks7EABFlv0YSHxoYceeo2E0A7+u2QhKQsuk1xzDq1lcl93kIUpnSzA3/EHBbLaZdGHk05LprEt7n1n/dRuO7mzV1Mi0gdki5La4bFrlKx0bJF9l9bqHjp3lF2/ne8zxg8fXaqj9vJp48KnnF9OrbWLD+xW2yeU834CEF3eP4fePgLpUzc9sPpz7IrawXDsCx3AfJTLq4yFkN4syWJTRZ9U09SILrKUCNQvt2WmJjdFJrtf6Hie1eTCK1GKLdNPva74FMzB5nPmzDlA1sFX+OBeElvNanm7spw8X9R+NT3ICtWKLo6zIkuUZLlSaflzWCDaaxUhQdiH1hS7olVdHBPHbmRjYdWuY3kdkBg4SkJgr1prF1vn2P1F7fEHCIe5yIOTXdT0oUFDpwUk0akHL5Pl+Qu2iNLF1lC2PMtWUKk9lX+nZvmRNSv5nnvueZs+NK0fPXp0Hn1wksrJVlfmohDJXcZH7xUF1E9OeaLqbFVyherJqrXugQceeIOtz/QBT4pHY1GndCebjkd2qbPLkeMbab2qOomAT6xQtWhQyCcIQHT5xDR6xSCsfrql+ItB9Oaj6k2RR0sWoVwKmFUtGuSHFceWULxJoZKYtSBko3XApYCpLy3kfvmYrAKvUwxKisKCYdZV54rGOW5L3nBAD/x8V9TpbB30kOQ8V1V21NP5MFUpQnnNOWRVsaNPUlHeZWp0faq6lQ9wpwz70tmIKsfSpV62JNERSWmqGjMW4r8xckuym503r0jf7blfWZZFKW1aKeM1RS7cz8j9lk2WZ0mUkDDmdWzR8mysR3XbnJqD2vkviaCPaGNEZ5427r8aIcc7Te0ZJ1lfM59++unf8/E8RqEl3W/L0ivzpPelFluJj03ef1SzsGccKOuZBCC6PHNevKFXdr2RWRmQ9IbDbiPjjjFVY6cdQxyUrfrihwyLK7JetdJuMY5r6bwULqULdh2RS0JVugE1HWFLE++2ozMln+EgY3bryW/qzjwArbVN9bbSbrz1tCvv72TlSqUDxCXrgJqHlZoxOVOG+tBADOwRXc4059Z7+QglOkZKTTJdqR9kPSmjNezUsUYs2mhNceyaqr9Fdq/Za8EzB43ERxtZgn6kjS9Pk7XtKJ2PyGuKLVt6d6wr3hHLAp37YozP5HbcJlSorWZ51zCNif9WbAnILpiUG3ncuuhQuVcSgOjyymnznU7Lb572fDLk0bPrwp7t74o36fbHH3+8W7Ory7NFsVuHKNP9dRSE2yn67IkbcmTW2aJGMSb/jywjnQ94dzwYHembA/eoEhcO1Ov0Lcr1yz/bevDael1Nh/jDAwtXsrDJx+xYvY37RTFJTouVlStXfvHKK688QqKvTrEBwC5homZ8ijK8wUHeEOE2a7DcHs+Noj3Vrl87x4TifkoAostPJ95Thm2Pm0PpBqRP9wEUQxND2/xb+dMo6zDlm7TJ+Pg1ydLFyQjJdWA21sIVVgBrXDkQVxZc9ozb0bni8ZKrJJsFV3e0Z28/jcLDY4WUveNRPrQdvdee+0hwNXIKD3vuMc1zZs+9clneuceCiy2m/DfjxSLe5vCdsKj53Lq2CQsFVBGA6FKFCYU8gYBSFG3atOlqiovJpn7xJ1EWVfL3CxJaGl/v/L0xO7baITltGVA8jLXUtpYsdG51j8jtGbPySxYCJx4eajnZXY4zuxvnze573XSDVz0oe0q0ymk1jOuqOyxBynlx2d+jm9YQqgUBqwQgurBAvJIAxadoKdN2TA913tE3fqtpM1w9Fndb7pztL1kp2fzoKEs1zXuViFIzIDNl3MnPUpfkNnuibQcx2bWhwhXrxhV1ODpW3OfBBCC6PHhy0DWvIOB3b67soqLzABPoSKUpfOwNZTofzqk1eDOE0XrFE2f6QFZykn6mtBUCHQVk97E5blwVfjeXzrD0ROupM+NR3OtNYtJFQ0Y13UUAoqu7SKMdswR8+I3b0oy7LRu4u5cYpRvQUqbthb/97W9vJffuCkqn0Y9zDNm7Jd/d/fSS+l31YO8xoeiJcYJW5t4hTl42Ri9Z+v7dTYgu/55/jB4EVBEgS1bcM88886v333//YdrA0FvVTSoKqdnpp6IabyzikAgwGagr6vA2dt7yocWeubGnrLfNF/prQgCiC0sCBLqPgKusG93XY2qJBRcl4vz36tWr73N1nJgrUid0KwwPaAzWFw+YBHQBBBwkYM9hsA42gdtAwKsJePunUKeEHu+2/O9///sEnV3ncsHl1avCvzvv1JryAnTO/s07e78XIEIXHSUA0eUoOdznLwS8/Q3Uof7L58gdOHBg/nvvvfeQYrLNPnA5PUV3XnL/XNymV4kJP3bNOjLt9ixQZ9eBs/c7Mj7c4yUEILq8ZKJ8tZtueni6DBcd7aL6PEgVjdrzxq+iOvcX+eijjx6orKyMNbYkJZk116ojbsfuFmrup9X9Lbg55Ub3DwgtgoCPE0BMl49PsK8Oj7Ji5y9atGircXymGemVw1bzqdNUSEj30M68kNmzZ+/fsGGDr2I0Oy45Zujs2bODly5deom7Bu+IUHNXX3qoXodEuLzjtwfj4Rzqdw8xdrRZZ8eo5n3H0b7hPi8mANHlxZPnz12ncwwPfPjhh/e6m8Gnn37Kh+wKfpjaQpOcnDyDcm/ZtHIpj2fin+k8ydaBAwfmBQUF8RFN5h5e0g40TjVBQfr9qY1Id8+jL9Uvr0cvt3JBlPjSosRYVBOA6FKNCgW7gYDqN2LlUSR06K78YLf16VSqn4WAmQeWfK9cRjo6x08FlySK0tPTx1BuLpuCSLZY9enTp+KJJ5546rLLLtsUHR1dLSdKlXkbvzN/SkavbSe24X/4wx9e/O6771Z2w9ryxCZUr3dznTfmSNM5MjB//BDhCCfcAwKuJgDR5WqiqM9tBJQWFWqkU2AZD7yW9JRJ4xazoltxzXSKLw8VXE49qFVOjtRGXl7eYDogXL7FqqAlEaX/y1/+8udf/OIXb6psQ1NVVVVHVrEmteV9qRwLUmctVZScdgCt0Qhf4uKnY+mOv2k/Ret5w4bo8rw58ZYeueqNQrKq8EPb1kNIGQOkFE30qb1TGdiA56o+e8scOdRP2QpC51uq3kQwaNCg/MWLFydygyQElNYXc8ksBZrvDrKiBSgtlg511kNuCggIaLOnK7Q5Ib65uTmU7rHrPm5Dnh86iqkXWbtsWXc7u4XdjvbMkNNl8V7jNELfrAC7F31zXt02KrJMuOXNhALjsygGqFltx8+dOzestrY2UG15F5dTuiLdwsPF/bW7uuLi4ijKPN9P7Y3Dhg3LiYiIqDeWF1kIG7/aFT93/i4kJIS5sdDWq23Dk8v16tWrIi4urkptH9PS0iaRpS9ObXnTchQHF0znVo6zZzPC8OHDM6OiojpIFON931HwuA8EnCSAPz4nAeJ25wjIFqv4+PhSe6wFJAr6ZmRkjObWKYGn6k/7zvXWf+5mCxR9qX5/MFoqZQGlVoiqLefx4DmGLSYmplptRyleblRSUtJMteVNy5Fom3Dw4MG59tzfv3//AnvKoywIgIDrCah+U3V906gRBCgwSxCkB2/fvn1L6FN4jVomZIXp88MPP1zP5cPDwx1+eHPclqfnClPLxJXleOdhcHCwVcujMs8Wu8pkkaY2SJtEdju7GR3pt8o2HF4XKuvv7Dq5V3OHDBmSq3YsFCsnvPLKK7/Jz8+PV3uPXI6sXAGUP+2+7OzsoWrvJUFYQ9bITLXlbZRzmKsL2ne0bXvus6esC4aEKvyJAESXP822B481MDCwddy4cafUdpEDvOlomodo59sK5T2ygFIKKVlYGb9rle4VfrjKD9jc3Nze+/btm7F27dqVp06dUv1AU9tnbypHlscGcpdVWuuz0rWVmZk5vLy8XDoIW62I5d2RlDJioB1cPPZhOHjw4NKRI0eesWMsGsr2P/eXv/zl/1JTU0epva+goKDXv//97z/TKQEPqr2Hy02YMOFkQkJCsfEel3C0V5gq+uuS9u0ZvwNlvaGPDgwLt/Q0AQTS9/QM+E/7/CZmzg3IaRm09Abe+q9//WsbJSJdLiMx2a14ASmK6xr429/+9jW67/Ubb7zxC3ro5ckPAuUDweTh0PlmSpaCfmRpGMSxMfTgm/LAAw+M51gbcl32fvXVVx+mBt938fR4xRu5vGuTLIhyjJZNDGR57E1i9XZK33HcWtwfxeEFHT16dMamTZuuvPfee687ceLEBJuVe3gBmdf8+fN3rVmz5i5iEKK2y19//fVN7CZ/+umnP7v00ku3jBo16mzv3r27cOcNB/SBYPCuXbsW33fffTcnJiZe3t7ebpdLfcaMGYdGjBhRyP2yJw5M7ThQDgRAQB0BiC51nFDKvQSkBwg/tMjFSM/l2ii1Dwd6YA178sknX2Cr10033ZQ8ZcqUY/369SuknFElyh2OZWVlffiLrDHxlAphCIutFStWxNXV1UXRTrI4enDyTjL5Eqle1dYH96JxunZHhJ6045BjgHQ6nUaRNsJqZ958881fUHxd+LZt2z4ly885sl62kTgIJNdjyMmTJyfS16SrrrpqKVm4RlO6A9VB+k4TcHMFsqgn0bR1wIABefaunZSUlCn8RS7Kxyggv5xOASg3xl8J1dXVsXTyQj/6m4jmFB7M0t7hULxZ3cKFC3eSO9NvE/3aywzlQcBdBCC63EUW9aoiYExAKgVgjx49+iw9cLZ+8803UqyW2otiiTRkrRrNX1999dXNFCek4cBu4/2S6ODs5xxzpOJTvmSRIyvYCLLeRJFLplZtP3yonMSMBOxRemBXKc5etDpEElyhJLwee//99x+h3YmNHFjOgpbSGgSQcNORAOuSyNOWJdObeBqtXSV//etfP/4HXY70nUTVIP5y5F5r9yxYsGD3kiVLpCOznHAJurJbdlnpXNmwh9YFHh46Me7oFmK63EEVddpFgIUQ53aiYPpqslZ9Sg96h4UO18WWGXrQa41fOvquo991EVz8wLd24DJZY8ZxHiS7BuIjheUH89SpU4+Rq6vU3mHRIeFassxEkEtsILnGwijfV5Cp4OI6VQhge5s2V94RS5/d7crMVq1atWbixInH7a7ATTeQi7iR3Ob/IwtavdpYO7VdcXV9atvthnI9JoJ8mGk3TJt3NAHR5R3z5Cu9NPsANO4+lF67/PLLfyK333pXDNiaqOIHvoWHvvSGy0HecmC4K/ribXXwmz+5yioo4ek2D+p7jz0M1TKgzSDZP//5z18iEdao9h5r61RtHZbK3XHHHavJeryFX/cQK5cjQ1LOe3evge5uzxE+uMeLCEB0edFkeXlX+c3L4hsYPRD0HFBPn8gb6Ty+f0yaNOmEs+O105LCoq9TFFLsTGBWVtYIZ/vgrffL8XC33XbbR7GxsdVuHEcX7mrb8WSLwC233PL5I4888iq5uFVZ2excp2oRaSjGbDttNPkXxUm2upgXhIjqWVBfUHGGrPqbUNLrCEB0ed2U+W6HjcJLoFiiM0899dQTFFic56rR2rAmmH04UnDzNFe176p6bB2V5Kp2yPqo54cAuxhZeFmq1wVWGrse4FbOzOzsopwiRE1Z03G5gi+J1EZKBfHi7bff/qGr5sNMP61WPXv27EO0q/dXtBtS+htyh5XLHXW6i5fyA5WtNoxnudq1Ls3U6ez9trqJ172UAESXl05cT3Xb2qcxVzyw5Dfy66677qe33377HtrqnuSKsTpiTaCcXRfTUS0Wd4uZG68j4k7N+FhIUKA6x6V1eTO31p4xbk2VtcVcH5gZxde1PProo6/MmzfvgKUyavpvqQxtVCgjYZdMuyTV9FNUu8Z4HXFZa+XNsXNEqJkbG+ftevHFF/8fHQL+N05M6gwjC/00WyXtGO3g9CmUx+sOEl6pzrRr615HrWfd+XdjawzmXnfR0VRq1nOX5t11xJojDHCP+whAdLmPra/XfMEnORsPLMH4CVI1l+XLl2+jzNs3P/jgg2+pOdfOCauL7PrsHBNnyB8zZsxpxS7IC/ptbrw2xJ1Tn36ND6sudVhrzxi35vDfuCyAKbFmJlsep0+ffkz15NkoSNag2ltvvfXzTz/99IZnn332dyS61JzB2PkgU2llsbrmzLCz+0FpbZi0CaHuj3/849MkgO686KKL9jj6MFf7gYHW65nnnnvu16+99tpD5J5Pt0MUObUu7V0T5ixJNsbo9LxQ/V12ztros7I9R9rmdedQeyrXtb3IUd6DCCBlhAdNhjd0xSg06FtXi4utvnO6BkdEET/wKVfRL6+88srvv/jii1WUPPVqOgYlxtybtNqHk2lfuV9kIdBzxu5Zs2bto+DxRLK+JPFDjCw9rWbGJr0Rc3s0LtVvykZmDj3g+M3YnKXLGncrmwVsTVeX143pEHYfOXLkLnqo/4WOX1pJOxLtPmychFUHi1mayx+uvfbar+fMmXOQMt/XUZqE3pRbLY+S3Q611jFO+6Fm3SkfXPacH8mpR9TUbw88dplT+XWUu+vY5s2bl33++ed3HTp0aA7FDAbbU4+lspwLjZKeZtxwww1ryTr8Da3f448//rhd+biYqz19cQUjPttTbZuumBd7+mzkIf1dOyiC+P1R7fD4PUR1WRT0fgIQXd4/h909AundhHL/7OD8S/Sm36LogLl3GpHeVAJpG32qo+fskXuG2/iJxNZWCm4fuWXLlit27969mB7Sw8j9F8sijM/+o1QFFt/IWVjReYLtfJ5gREREPcUsNZAlomTo0KFZtOPsJLnP9rJli95kGziY3xpU+Y2YMuCfveeee96hdoNtWTH4ITNz5sxD1K5DZw1yfzjOih7aB6jN94yuM363lh+YXdjzQ4bzlZF16oizC8SYS02g7ydKS0sfuP7667+gzOv30lFJ4yl7f38SZRcICOZNnDlXVxXn6yLxnMI7U3k3JB9uTsHd7dwvdleTgKulGKj/0KkA05ijiftJzrOmI+tYFSW9lY+ysTksqqfjiiuuWEeCLt+49iw+CXl+yL3TPHz48AybFTtQgNZKPt32HvH7grLwT+I1vGfPnks4SSwnlDWu4RBrD2DqXyuvTz5cm5P/0t+UxJSSCu8ZOHBgxTPPPNPZM3vEAq8ROh3gXSN3U0adgozXFM8rreODTggSDR9sT3nDNtK6qKR54XVgbV74tIomEpZnjW3arVB4Jyn/ndI6C+E1YTJ9XQQnpZYJoDM0s+05jcF0OXByZuL5JrVn832B2gukuLszJMTtEsoOLEHc4iEE7PqE4yF9Rjd6kIDssrDnTV3urnxciiu6zzsdKaVDr5ycnOGcXZ6ScPaiZKZ9jW90Xd7E+WFCQqqCREAdPbBq+IHFX/RGnklvrtLDX75YBMjWPEfG6IqxeWodyvmj/Fu606dPj+fNBnQeIOfjipTFEvMjYVXGDx9+gJGwzeYYJ+W45LrYesdi0hPGTMJdoKSu6k0UTnaaxq4jC9hIEq79+JQEFl58YoKpdY558jmYnK2euXK2f+bK52M62YXO2+Wx83f+pSUOcjlX/C3LbVlrj19z1byobY/bdHZ83BYLVNniZWtdOfO+6qo1gHq6hwBEV/dw9ulWrMWOQLh0z9Qr58DdzJ19IHUPEbQCArYJmP7ddLf46e72bBNBCXcTgOhyN2HUDwI+SsCc2Ha34PNRlJJlxdbYwNYWIbwOAiAAAiAAAiAAAiAAAiAAAiAAAiAAAiAAAiAAAiAAAiAAAiAAAiAAAiAAAiAAAiAAAiAAAiAAAiAAAiAAAiAAAiAAAiAAAiAAAiAAAiAAAiAAAiAAAiAAAiAAAiAAAiAAAiAAAiAAAiAAAiAAAiAAAiAAAiAAAiAAAiAAAiAAAiAAAiAAAiAAAiAAAiAAAiAAAiAAAiAAAiAAAiAAAiAAAiAAAiAAAiAAAiAAAiAAAiAAAiAAAiAAAiAAAiAAAiAAAiAAAiAAAiAAAiAAAiAAAiAAAiAAAiAAAiAAAiAAAiAAAiAAAiAAAiAAAiAAAiAAAiAAAiAAAiAAAiAAAiAAAiAAAiAAAiAAAiAAAiAAAiAAAiAAAiAAAiAAAiAAAiAAAiAAAiAAAiAAAiAAAiAAAiAAAiAAAiAAAiAAAiAAAiAAAiAAAiAAAiAAAiAAAiAAAiAAAiAAAiAAAiAAAiAAAiAAAiAAAiAAAiAAAiAAAiAAAiAAAiAAAiAAAiDg5wT+PzA2L7NDXBZ7AAAAAElFTkSuQmCC;labelBorderColor=none;imageBorder=#5B4FFF;" vertex="1" parent="1">
          <mxGeometry x="540.01" width="117.48" height="80" as="geometry" />
        </mxCell>
        <mxCell id="YRlIsao8IeBGWh96QyeZ-15" value="" style="rounded=1;arcSize=5;dashed=1;fillColor=none;gradientColor=none;dashPattern=1 1;strokeWidth=2;" vertex="1" parent="1">
          <mxGeometry x="585" y="980" width="351" height="360" as="geometry" />
        </mxCell>
        <mxCell id="YRlIsao8IeBGWh96QyeZ-17" value="" style="rounded=1;arcSize=5;dashed=1;fillColor=none;gradientColor=none;dashPattern=1 1;strokeWidth=2;strokeColor=#00CC00;" vertex="1" parent="1">
          <mxGeometry x="623" y="188" width="390" height="430" as="geometry" />
        </mxCell>
        <mxCell id="YRlIsao8IeBGWh96QyeZ-18" value="AZONE us-east-1a" style="text;html=1;align=center;verticalAlign=middle;resizable=0;points=[];autosize=1;strokeColor=none;fillColor=none;fontStyle=1;fontSize=15;fontFamily=Verdana;spacingTop=0;horizontal=1;" vertex="1" parent="1">
          <mxGeometry x="288" y="158" width="180" height="30" as="geometry" />
        </mxCell>
        <mxCell id="YRlIsao8IeBGWh96QyeZ-19" value="AZONE us-east-1b" style="text;html=1;align=center;verticalAlign=middle;resizable=0;points=[];autosize=1;strokeColor=none;fillColor=none;fontStyle=1;fontSize=15;fontFamily=Verdana;" vertex="1" parent="1">
          <mxGeometry x="728" y="158" width="180" height="30" as="geometry" />
        </mxCell>
        <mxCell id="YRlIsao8IeBGWh96QyeZ-27" value="" style="group" vertex="1" connectable="0" parent="1">
          <mxGeometry x="626" y="210" width="354" height="386.95" as="geometry" />
        </mxCell>
        <mxCell id="YRlIsao8IeBGWh96QyeZ-28" value="" style="rounded=1;arcSize=10;dashed=0;fillColor=none;gradientColor=none;strokeWidth=2;strokeColor=#2676FF;fontSize=15;movable=1;resizable=1;rotatable=1;deletable=1;editable=1;connectable=1;" vertex="1" parent="YRlIsao8IeBGWh96QyeZ-27">
          <mxGeometry x="16" y="-2" width="354" height="386.94999999999993" as="geometry" />
        </mxCell>
        <mxCell id="YRlIsao8IeBGWh96QyeZ-29" value="" style="dashed=0;html=1;shape=mxgraph.aws3.permissions;fillColor=#D9A741;gradientColor=none;dashed=0;strokeColor=#2676FF;strokeWidth=2;fontSize=15;" vertex="1" parent="YRlIsao8IeBGWh96QyeZ-27">
          <mxGeometry x="15" y="-12" width="29.01639344262295" height="32.71316425120773" as="geometry" />
        </mxCell>
        <mxCell id="YRlIsao8IeBGWh96QyeZ-32" value="SUBNET-US-EAST-1B&lt;br&gt;10.0.2.0/24" style="text;html=1;align=center;verticalAlign=middle;resizable=0;points=[];autosize=1;strokeColor=none;fillColor=none;fontStyle=1;fontSize=15;fontFamily=Verdana;spacingTop=0;horizontal=1;" vertex="1" parent="YRlIsao8IeBGWh96QyeZ-27">
          <mxGeometry x="40.01639344262295" y="-4" width="200" height="50" as="geometry" />
        </mxCell>
        <mxCell id="YRlIsao8IeBGWh96QyeZ-44" value="" style="rounded=1;arcSize=5;dashed=1;fillColor=none;gradientColor=none;dashPattern=1 1;strokeWidth=2;" vertex="1" parent="YRlIsao8IeBGWh96QyeZ-27">
          <mxGeometry x="43.01999999999998" y="53" width="300.81" height="308.53" as="geometry" />
        </mxCell>
        <mxCell id="YRlIsao8IeBGWh96QyeZ-46" value="ATTO5GC&lt;br&gt;SECURITY GROUP" style="text;html=1;align=center;verticalAlign=middle;resizable=0;points=[];autosize=1;strokeColor=none;fillColor=none;fontStyle=1;fontSize=15;fontFamily=Verdana;spacingTop=0;horizontal=1;" vertex="1" parent="YRlIsao8IeBGWh96QyeZ-27">
          <mxGeometry x="173.82639344262293" y="53" width="170" height="50" as="geometry" />
        </mxCell>
        <mxCell id="YRlIsao8IeBGWh96QyeZ-42" value="UERANSIM&lt;br&gt;Public IP :&amp;nbsp;35.154.228.14&lt;br&gt;Private IP :&amp;nbsp;10.0.1.145" style="sketch=0;points=[[0,0,0],[0.25,0,0],[0.5,0,0],[0.75,0,0],[1,0,0],[0,1,0],[0.25,1,0],[0.5,1,0],[0.75,1,0],[1,1,0],[0,0.25,0],[0,0.5,0],[0,0.75,0],[1,0.25,0],[1,0.5,0],[1,0.75,0]];outlineConnect=0;fontColor=#232F3E;gradientColor=#F78E04;gradientDirection=north;fillColor=#D05C17;strokeColor=#ffffff;dashed=0;verticalLabelPosition=bottom;verticalAlign=top;align=center;html=1;fontSize=12;fontStyle=0;aspect=fixed;shape=mxgraph.aws4.resourceIcon;resIcon=mxgraph.aws4.ec2;labelBackgroundColor=none;labelBorderColor=none;strokeWidth=2;fontFamily=Verdana;" vertex="1" parent="YRlIsao8IeBGWh96QyeZ-27">
          <mxGeometry x="154" y="126" width="78" height="78" as="geometry" />
        </mxCell>
        <mxCell id="YRlIsao8IeBGWh96QyeZ-34" value="" style="group" vertex="1" connectable="0" parent="1">
          <mxGeometry x="200" y="208" width="380.02" height="420" as="geometry" />
        </mxCell>
        <mxCell id="YRlIsao8IeBGWh96QyeZ-35" value="" style="rounded=1;arcSize=10;dashed=0;fillColor=none;gradientColor=none;strokeWidth=2;strokeColor=#2676FF;fontSize=15;movable=1;resizable=1;rotatable=1;deletable=1;editable=1;connectable=1;" vertex="1" parent="YRlIsao8IeBGWh96QyeZ-34">
          <mxGeometry width="354" height="386.94999999999993" as="geometry" />
        </mxCell>
        <mxCell id="YRlIsao8IeBGWh96QyeZ-36" value="" style="dashed=0;html=1;shape=mxgraph.aws3.permissions;fillColor=#D9A741;gradientColor=none;dashed=0;strokeColor=#2676FF;strokeWidth=2;fontSize=15;" vertex="1" parent="YRlIsao8IeBGWh96QyeZ-34">
          <mxGeometry y="-10" width="29.01639344262295" height="32.71316425120773" as="geometry" />
        </mxCell>
        <mxCell id="YRlIsao8IeBGWh96QyeZ-37" value="SUBNET-US-EAST-1A&lt;br&gt;10.0.1.0/24" style="text;html=1;align=center;verticalAlign=middle;resizable=0;points=[];autosize=1;strokeColor=none;fillColor=none;fontStyle=1;fontSize=15;fontFamily=Verdana;spacingTop=0;horizontal=1;" vertex="1" parent="YRlIsao8IeBGWh96QyeZ-34">
          <mxGeometry x="26.01639344262295" y="-2" width="200" height="50" as="geometry" />
        </mxCell>
        <mxCell id="YRlIsao8IeBGWh96QyeZ-43" value="" style="rounded=1;arcSize=5;dashed=1;fillColor=none;gradientColor=none;dashPattern=1 1;strokeWidth=2;" vertex="1" parent="YRlIsao8IeBGWh96QyeZ-34">
          <mxGeometry x="27.020000000000003" y="55.47" width="300.81" height="308.53" as="geometry" />
        </mxCell>
        <mxCell id="YRlIsao8IeBGWh96QyeZ-45" value="ATTO5GC&lt;br&gt;SECURITY GROUP" style="text;html=1;align=center;verticalAlign=middle;resizable=0;points=[];autosize=1;strokeColor=none;fillColor=none;fontStyle=1;fontSize=15;fontFamily=Verdana;spacingTop=0;horizontal=1;" vertex="1" parent="YRlIsao8IeBGWh96QyeZ-34">
          <mxGeometry x="149.99639344262295" y="55.47000000000003" width="170" height="50" as="geometry" />
        </mxCell>
        <mxCell id="YRlIsao8IeBGWh96QyeZ-41" value="ATTO-5GC&lt;br&gt;Public IP :&amp;nbsp;13.126.229.197&lt;br&gt;Private IP :&amp;nbsp;10.0.1.178" style="sketch=0;points=[[0,0,0],[0.25,0,0],[0.5,0,0],[0.75,0,0],[1,0,0],[0,1,0],[0.25,1,0],[0.5,1,0],[0.75,1,0],[1,1,0],[0,0.25,0],[0,0.5,0],[0,0.75,0],[1,0.25,0],[1,0.5,0],[1,0.75,0]];outlineConnect=0;fontColor=#232F3E;gradientColor=#F78E04;gradientDirection=north;fillColor=#D05C17;strokeColor=#ffffff;dashed=0;verticalLabelPosition=bottom;verticalAlign=top;align=center;html=1;fontSize=12;fontStyle=0;aspect=fixed;shape=mxgraph.aws4.resourceIcon;resIcon=mxgraph.aws4.ec2;labelBackgroundColor=none;labelBorderColor=none;strokeWidth=2;fontFamily=Verdana;" vertex="1" parent="YRlIsao8IeBGWh96QyeZ-34">
          <mxGeometry x="138.43" y="128" width="78" height="78" as="geometry" />
        </mxCell>
        <mxCell id="YRlIsao8IeBGWh96QyeZ-40" value="Region - US East N.Virginia (us-east-1)" style="text;html=1;align=center;verticalAlign=middle;resizable=0;points=[];autosize=1;strokeColor=none;fillColor=none;fontStyle=1;fontSize=15;fontFamily=Verdana;spacingTop=0;horizontal=1;spacing=0;" vertex="1" parent="1">
          <mxGeometry x="719.5" y="90" width="350" height="30" as="geometry" />
        </mxCell>
        <mxCell id="YRlIsao8IeBGWh96QyeZ-49" style="edgeStyle=orthogonalEdgeStyle;rounded=0;orthogonalLoop=1;jettySize=auto;html=1;exitX=1;exitY=0.25;exitDx=0;exitDy=0;entryX=0;entryY=0.25;entryDx=0;entryDy=0;fontFamily=Verdana;fontSize=15;fontColor=#2E201B;" edge="1" parent="1" source="YRlIsao8IeBGWh96QyeZ-43" target="YRlIsao8IeBGWh96QyeZ-44">
          <mxGeometry relative="1" as="geometry" />
        </mxCell>
        <mxCell id="YRlIsao8IeBGWh96QyeZ-51" style="edgeStyle=orthogonalEdgeStyle;rounded=0;orthogonalLoop=1;jettySize=auto;html=1;exitX=0;exitY=0.5;exitDx=0;exitDy=0;entryX=1;entryY=0.5;entryDx=0;entryDy=0;fontFamily=Verdana;fontSize=15;fontColor=#2E201B;" edge="1" parent="1" source="YRlIsao8IeBGWh96QyeZ-44" target="YRlIsao8IeBGWh96QyeZ-43">
          <mxGeometry relative="1" as="geometry" />
        </mxCell>
        <mxCell id="YRlIsao8IeBGWh96QyeZ-58" style="edgeStyle=orthogonalEdgeStyle;rounded=0;orthogonalLoop=1;jettySize=auto;html=1;exitX=0.5;exitY=1;exitDx=0;exitDy=0;exitPerimeter=0;fontFamily=Verdana;fontSize=16;fontColor=#2E201B;" edge="1" parent="1" source="YRlIsao8IeBGWh96QyeZ-48" target="YRlIsao8IeBGWh96QyeZ-56">
          <mxGeometry relative="1" as="geometry">
            <Array as="points">
              <mxPoint x="599" y="710" />
              <mxPoint x="420" y="710" />
            </Array>
          </mxGeometry>
        </mxCell>
        <mxCell id="YRlIsao8IeBGWh96QyeZ-48" value="" style="outlineConnect=0;dashed=0;verticalLabelPosition=bottom;verticalAlign=top;align=center;html=1;shape=mxgraph.aws3.internet_gateway;fillColor=#F58534;gradientColor=none;labelBackgroundColor=none;labelBorderColor=none;fillStyle=solid;strokeColor=default;strokeWidth=2;fontFamily=Verdana;fontSize=15;fontColor=#2E201B;" vertex="1" parent="1">
          <mxGeometry x="570" y="620" width="57.5" height="60" as="geometry" />
        </mxCell>
        <mxCell id="YRlIsao8IeBGWh96QyeZ-52" style="edgeStyle=orthogonalEdgeStyle;rounded=0;orthogonalLoop=1;jettySize=auto;html=1;exitX=0.5;exitY=1;exitDx=0;exitDy=0;exitPerimeter=0;entryX=0;entryY=0.5;entryDx=0;entryDy=0;entryPerimeter=0;fontFamily=Verdana;fontSize=15;fontColor=#2E201B;" edge="1" parent="1" source="YRlIsao8IeBGWh96QyeZ-41" target="YRlIsao8IeBGWh96QyeZ-48">
          <mxGeometry relative="1" as="geometry" />
        </mxCell>
        <mxCell id="YRlIsao8IeBGWh96QyeZ-53" style="edgeStyle=orthogonalEdgeStyle;rounded=0;orthogonalLoop=1;jettySize=auto;html=1;exitX=0.5;exitY=1;exitDx=0;exitDy=0;exitPerimeter=0;entryX=1;entryY=0.5;entryDx=0;entryDy=0;entryPerimeter=0;fontFamily=Verdana;fontSize=15;fontColor=#2E201B;" edge="1" parent="1" source="YRlIsao8IeBGWh96QyeZ-42" target="YRlIsao8IeBGWh96QyeZ-48">
          <mxGeometry relative="1" as="geometry" />
        </mxCell>
        <mxCell id="YRlIsao8IeBGWh96QyeZ-56" value="&lt;span style=&quot;color: rgb(35, 47, 62); font-size: 16px;&quot;&gt;13.126.229.197&lt;/span&gt;" style="text;html=1;align=center;verticalAlign=middle;resizable=0;points=[];autosize=1;strokeColor=none;fillColor=none;fontSize=16;fontFamily=Verdana;fontColor=#2E201B;fontStyle=1" vertex="1" parent="1">
          <mxGeometry x="330" y="740" width="170" height="30" as="geometry" />
        </mxCell>
        <mxCell id="YRlIsao8IeBGWh96QyeZ-57" value="" style="shape=mxgraph.cisco.people.androgenous_person;html=1;pointerEvents=1;dashed=0;fillColor=#036897;strokeColor=#ffffff;strokeWidth=2;verticalLabelPosition=bottom;verticalAlign=top;align=center;outlineConnect=0;labelBackgroundColor=none;labelBorderColor=none;fillStyle=solid;fontFamily=Verdana;fontSize=15;fontColor=#2E201B;" vertex="1" parent="1">
          <mxGeometry x="271" y="709" width="69" height="82" as="geometry" />
        </mxCell>
        <mxCell id="YRlIsao8IeBGWh96QyeZ-59" value="" style="shape=mxgraph.cisco.people.androgenous_person;html=1;pointerEvents=1;dashed=0;fillColor=#036897;strokeColor=#ffffff;strokeWidth=2;verticalLabelPosition=bottom;verticalAlign=top;align=center;outlineConnect=0;labelBackgroundColor=none;labelBorderColor=none;fillStyle=solid;fontFamily=Verdana;fontSize=15;fontColor=#2E201B;flipH=1;" vertex="1" parent="1">
          <mxGeometry x="860" y="707" width="69" height="82" as="geometry" />
        </mxCell>
        <mxCell id="YRlIsao8IeBGWh96QyeZ-60" value="&lt;span style=&quot;color: rgb(35, 47, 62);&quot;&gt;&lt;font style=&quot;font-size: 16px;&quot;&gt;35.154.228.14&lt;/font&gt;&lt;/span&gt;" style="text;html=1;align=center;verticalAlign=middle;resizable=0;autosize=1;strokeColor=none;fillColor=none;fontSize=16;fontFamily=Verdana;fontColor=#2E201B;fontStyle=1" vertex="1" parent="1">
          <mxGeometry x="710" y="740" width="150" height="30" as="geometry" />
        </mxCell>
        <mxCell id="YRlIsao8IeBGWh96QyeZ-61" style="edgeStyle=orthogonalEdgeStyle;rounded=0;orthogonalLoop=1;jettySize=auto;html=1;fontFamily=Verdana;fontSize=16;fontColor=#2E201B;entryX=0.467;entryY=0;entryDx=0;entryDy=0;entryPerimeter=0;" edge="1" parent="1" target="YRlIsao8IeBGWh96QyeZ-60">
          <mxGeometry relative="1" as="geometry">
            <mxPoint x="590" y="710" as="sourcePoint" />
            <mxPoint x="810" y="730" as="targetPoint" />
          </mxGeometry>
        </mxCell>
      </root>
    </mxGraphModel>
  </diagram>
</mxfile>
